<?xml version="1.0" encoding="UTF-8"?>
<svg id="Capa_2" data-name="Capa 2" xmlns="http://www.w3.org/2000/svg" xmlns:xlink="http://www.w3.org/1999/xlink" viewBox="0 0 1004.91 409.31">
  <defs>
    <style>
      .cls-1 {
        fill: #ffa92c;
      }

      .cls-1, .cls-2, .cls-3, .cls-4, .cls-5, .cls-6, .cls-7, .cls-8, .cls-9 {
        stroke-width: 0px;
      }

      .cls-10 {
        opacity: .35;
      }

      .cls-11 {
        opacity: .5;
      }

      .cls-12 {
        opacity: .6;
      }

      .cls-2 {
        fill: #371a45;
      }

      .cls-3 {
        fill: #22a7f0;
      }

      .cls-13 {
        opacity: .3;
      }

      .cls-4 {
        fill: #ffd243;
      }

      .cls-5 {
        fill: #ffc33d;
      }

      .cls-6 {
        fill: #6b5ffd;
        filter: url(#drop-shadow-1);
      }

      .cls-7 {
        fill: #fff;
      }

      .cls-14 {
        opacity: .25;
      }

      .cls-8 {
        fill: #111a28;
      }

      .cls-9 {
        fill: #d8d8d8;
      }
    </style>
    <filter id="drop-shadow-1" filterUnits="userSpaceOnUse">
      <feOffset dx="4" dy="4"/>
      <feGaussianBlur result="blur" stdDeviation="8"/>
      <feFlood flood-color="#000" flood-opacity=".5"/>
      <feComposite in2="blur" operator="in"/>
      <feComposite in="SourceGraphic"/>
    </filter>
  </defs>
  <g id="Capa_1-2" data-name="Capa 1">
    <g>
      <g>
        <path class="cls-6" d="M26.75,227.61l-5.95-107.11c-.3-5.46,5.31-9.29,10.27-6.99,39.08,18.17,183.9,65.9,456.57-54.33,0,0,212.66-83.53,320.89-5.31,1.69,1.22,2.74,3.15,2.92,5.23l7.83,92.13c.5,5.89-5.87,9.88-10.94,6.83-32.61-19.63-130.9-62.16-301.1,1.1-210.99,78.41-291.95,122.28-475.06,75.06-3.05-.79-5.25-3.47-5.42-6.62Z"/>
        <g>
          <path class="cls-7" d="M35.39,139.13c3.31,1.38,6.62,2.69,9.93,3.95.12,3.37.25,6.75.37,10.12-3.31-1.24-6.63-2.55-9.94-3.92-.12-3.38-.24-6.76-.36-10.15ZM36.6,178.09c.18-6.93.36-13.87.54-20.8,2.57,1.05,5.13,2.05,7.7,3.02.7,7.26,1.41,14.52,2.12,21.78.35,9.29.71,18.58,1.07,27.87-3.47-1.24-6.93-2.55-10.4-3.93-.35-9.31-.69-18.62-1.03-27.93Z"/>
          <path class="cls-7" d="M55.36,197.26c-.47-11.94-.94-23.88-1.4-35.82-.39-10.33,4.62-14.47,14.54-11.55,9.92,2.87,15.41,10.05,15.86,20.29.1,2.33.2,4.67.3,7-3.25-.75-6.51-1.56-9.76-2.43-.11-2.56-.21-5.12-.32-7.68-.18-4.36-2.32-6.71-5.41-7.6-3.1-.89-5.08.27-4.91,4.65.5,12.39,1,24.78,1.51,37.17.18,4.37,2.33,6.7,5.44,7.56,3.11.86,5.12-.33,4.93-4.69-.14-3.38-.29-6.76-.43-10.15,3.26.85,6.53,1.65,9.79,2.39.14,3.12.27,6.25.41,9.37.45,10.18-4.56,15.2-14.59,12.49-10.02-2.76-15.56-10.73-15.96-20.99Z"/>
          <path class="cls-7" d="M91.55,206.6c-.52-11.59-1.04-23.19-1.54-34.78-.46-10.62,4.79-15.34,14.89-13.63,10.1,1.66,15.9,8.2,16.41,18.74.56,11.52,1.13,23.04,1.7,34.55.53,10.48-4.74,16.04-14.94,14.53-10.2-1.56-16.05-8.85-16.52-19.41ZM112.68,210.88c-.58-11.98-1.15-23.96-1.71-35.95-.22-4.71-2.36-6.79-5.64-7.33-3.28-.54-5.25.87-5.04,5.59.55,12.01,1.1,24.02,1.66,36.03.22,4.71,2.38,6.87,5.68,7.37,3.3.5,5.29-1.01,5.06-5.71Z"/>
          <path class="cls-7" d="M127.47,162.07c4.3.41,8.6.74,12.89.99,4,13.26,8.03,26.44,12.09,39.55.06,0,.12,0,.19,0-.7-13.04-1.4-26.08-2.09-39.12,3.05.09,6.1.14,9.15.15,1.18,21.75,2.38,43.5,3.61,65.23-3.55.03-7.1,0-10.65-.06-5.02-15.98-9.99-32.07-14.93-48.28-.06,0-.12,0-.19-.01.82,15.95,1.65,31.89,2.48,47.82-3.08-.17-6.16-.38-9.24-.63-1.12-21.87-2.22-43.75-3.3-65.64Z"/>
          <path class="cls-7" d="M164.65,163.63c3.45-.03,6.91-.11,10.36-.24,3.19,16.75,6.42,33.45,9.67,50.11.06,0,.13,0,.19-.01,1.26-16.94,2.52-33.88,3.77-50.82,3.14-.22,6.28-.48,9.42-.77-1.99,21.91-4,43.81-6.01,65.71-4.58.36-9.17.65-13.75.86-4.6-21.53-9.15-43.14-13.64-64.84Z"/>
          <path class="cls-7" d="M205.12,210.92c-.71-11.35-1.41-22.69-2.11-34.05-.63-10.38,4.51-16.79,14.57-18.13,10.06-1.38,15.95,3.53,16.63,13.86.75,11.3,1.5,22.59,2.26,33.89.7,10.29-4.45,17.23-14.62,18.71-10.17,1.45-16.1-3.93-16.74-14.28ZM226.2,208.81c-.77-11.74-1.54-23.48-2.3-35.23-.3-4.61-2.46-6.06-5.73-5.61-3.27.44-5.21,2.45-4.92,7.07.74,11.76,1.49,23.52,2.24,35.28.3,4.62,2.48,6.11,5.77,5.64,3.29-.47,5.24-2.55,4.94-7.16Z"/>
          <path class="cls-7" d="M242.8,205.73c-.79-11.53-1.57-23.06-2.34-34.59-.67-9.96,4.16-16.72,14.03-18.73,9.87-2.04,15.5,2.56,16.22,12.47.16,2.26.33,4.52.49,6.78-3.24.75-6.48,1.48-9.71,2.18-.18-2.48-.35-4.96-.52-7.43-.3-4.22-2.47-5.52-5.55-4.88-3.07.64-5.01,2.78-4.72,7.01.82,11.98,1.65,23.95,2.49,35.93.29,4.23,2.48,5.46,5.58,4.81,3.1-.66,5.05-2.77,4.75-6.99-.23-3.27-.47-6.55-.7-9.82,3.25-.71,6.5-1.45,9.74-2.21.22,3.02.44,6.05.66,9.07.73,9.88-4.11,17.05-14.08,19.18-9.97,2.1-15.65-2.86-16.32-12.79Z"/>
          <path class="cls-7" d="M283.69,146.63c4.62-1.16,9.24-2.37,13.86-3.63,5.15,20.37,10.36,40.7,15.62,60.98-3.44.99-6.89,1.95-10.33,2.9-.96-4.06-1.91-8.13-2.86-12.19,0,.06,0,.12.01.18-3.9,1.06-7.81,2.09-11.72,3.09-.31,4.34-.62,8.68-.93,13.02-3.2.81-6.39,1.61-9.58,2.38,1.99-22.24,3.97-44.48,5.93-66.73ZM298.11,186.52c-2.34-10.13-4.66-20.27-6.98-30.42-.06.02-.12.03-.19.05-.7,10.94-1.4,21.88-2.11,32.82,3.09-.8,6.18-1.61,9.27-2.44Z"/>
          <path class="cls-7" d="M317.53,146.7c-3.57,1.05-7.14,2.08-10.71,3.08-.24-3.05-.47-6.09-.71-9.14,10.54-2.96,21.08-6.13,31.61-9.43.25,3.04.5,6.08.75,9.11-3.57,1.12-7.13,2.22-10.7,3.31,1.47,18.24,2.96,36.48,4.46,54.71-3.44,1.05-6.88,2.09-10.32,3.1-1.47-18.25-2.93-36.5-4.38-54.75Z"/>
          <path class="cls-7" d="M345.59,178.66c-.94-11.18-1.87-22.35-2.8-33.53-.84-10.21,4.15-17.76,14.18-21.05,10.02-3.3,16.01.65,16.91,10.85.98,11.16,1.97,22.32,2.96,33.48.91,10.19-4.1,17.89-14.23,21.22-10.13,3.32-16.16-.78-17.02-10.97ZM366.61,172.49c-1.01-11.59-2.02-23.18-3.02-34.77-.4-4.55-2.59-5.6-5.84-4.53-3.26,1.07-5.16,3.46-4.77,8.02.98,11.6,1.97,23.19,2.96,34.78.39,4.55,2.6,5.62,5.88,4.54,3.28-1.08,5.18-3.49,4.79-8.04Z"/>
          <path class="cls-7" d="M379.42,117.5c5.04-1.72,10.09-3.45,15.13-5.2,10.57-3.67,15.56-.44,16.49,9.38.12,1.3.24,2.61.37,3.91.61,6.55-1.13,11.48-5.53,14.88,0,.06.01.12.02.18,5.27-.23,7.39,3.92,8.07,11.1.35,3.73.7,7.46,1.06,11.19.3,3.09.6,5.33,1.86,7.34-3.49,1.21-6.99,2.41-10.49,3.62-.72-1.44-1.19-2.32-1.67-7.5-.36-3.88-.72-7.76-1.08-11.64-.55-5.91-2.5-7.21-7.16-5.6-1.18.41-2.36.81-3.54,1.22.83,9.1,1.66,18.19,2.5,27.29-3.44,1.18-6.87,2.35-10.31,3.51-1.92-21.23-3.82-42.45-5.7-63.68ZM395.83,140c3.82-1.32,5.99-3.76,5.53-8.85-.15-1.64-.3-3.27-.45-4.91-.42-4.55-2.18-6-5.8-4.75-1.55.54-3.1,1.07-4.65,1.6.55,6.06,1.1,12.13,1.65,18.19,1.24-.43,2.48-.85,3.73-1.28Z"/>
          <path class="cls-7" d="M416.81,104.54c3.4-1.19,6.8-2.38,10.2-3.57,2.03,21.23,4.08,42.46,6.15,63.69-3.43,1.18-6.86,2.37-10.29,3.55-2.04-21.23-4.06-42.45-6.05-63.67Z"/>
          <path class="cls-7" d="M442.49,95.58c4.6-1.6,9.2-3.19,13.8-4.77,5.64,20.04,11.34,40.11,17.09,60.2-3.43,1.14-6.86,2.28-10.28,3.43-1.05-4.01-2.1-8.02-3.15-12.03,0,.06.01.12.02.18-3.89,1.32-7.78,2.64-11.67,3.97-.21,4.37-.42,8.74-.63,13.11-3.18,1.09-6.36,2.18-9.54,3.27,1.47-22.46,2.92-44.92,4.37-67.38ZM457.88,134.35c-2.58-9.99-5.15-19.97-7.71-29.95-.06.02-.12.04-.19.06-.44,11.01-.89,22.02-1.34,33.04,3.08-1.06,6.16-2.11,9.23-3.15Z"/>
          <path class="cls-7" d="M474.71,134.91c-.12-1.22-.25-2.43-.38-3.65,3.23-1.07,6.46-2.14,9.69-3.19.15,1.46.3,2.92.46,4.38.47,4.56,2.7,5.54,5.97,4.49,3.27-1.05,5.14-3.34,4.64-8.09-.56-5.29-2.97-8.03-10.27-11.6-9.33-4.59-12.64-8.83-13.39-16.13-1.02-10.02,3.66-17.66,13.56-20.92,9.9-3.25,15.42,1.07,16.51,11.3.09.88.19,1.77.28,2.65-3.22,1.01-6.43,2.04-9.65,3.07-.12-1.1-.23-2.19-.35-3.29-.48-4.56-2.51-5.7-5.76-4.64-3.24,1.06-4.91,3.41-4.46,7.79.48,4.66,2.97,7.31,10.26,10.91,9.33,4.65,12.58,8.96,13.44,16.91,1.12,10.43-3.66,17.92-13.76,21.14-10.1,3.23-15.75-.91-16.8-11.13Z"/>
          <path class="cls-7" d="M528.56,67.63c4.59-1.33,9.18-2.62,13.77-3.87,5.91,20.48,11.87,41.02,17.89,61.64-3.42.84-6.84,1.7-10.26,2.59-1.11-4.1-2.21-8.2-3.31-12.29,0,.06.01.12.02.18-3.88,1.03-7.76,2.08-11.64,3.16-.15,4.36-.31,8.73-.46,13.09-3.17.88-6.35,1.79-9.52,2.71,1.19-22.41,2.36-44.81,3.52-67.22ZM544.47,107.49c-2.71-10.19-5.41-20.37-8.1-30.53-.06.02-.12.03-.19.05-.3,11-.61,22-.92,32.99,3.07-.86,6.14-1.7,9.21-2.52Z"/>
          <path class="cls-7" d="M557.76,59.73c5.11-1.28,10.22-2.51,15.33-3.67,10.52-2.38,15.62,1.68,16.8,11.67.1.86.21,1.73.31,2.59.79,6.67-.75,11.23-5.08,14.01,0,.06.02.12.02.19,5.68.72,8.39,5.15,9.21,12.01.22,1.85.44,3.71.66,5.56,1.2,10.03-3.47,16.33-13.72,18.49-5.38,1.14-10.75,2.36-16.13,3.64-2.49-21.51-4.95-43-7.4-64.49ZM574.95,82.64c3.8-.85,5.92-3,5.31-8.18-.14-1.2-.28-2.4-.42-3.61-.54-4.62-2.35-6.32-5.95-5.51-1.63.37-3.27.75-4.9,1.13.66,5.69,1.32,11.38,1.98,17.07,1.33-.31,2.66-.61,3.99-.91ZM580.21,111.34c3.44-.74,5.12-2.69,4.55-7.5-.22-1.88-.44-3.76-.66-5.64-.71-6.01-2.87-7.46-7.51-6.44-1.52.34-3.03.68-4.55,1.02.77,6.61,1.54,13.23,2.31,19.85,1.96-.44,3.91-.87,5.86-1.29Z"/>
          <path class="cls-7" d="M595.06,51.46c3.38-.64,6.77-1.25,10.15-1.83,2.6,21.68,5.22,43.38,7.86,65.1-3.41.53-6.83,1.09-10.25,1.69-2.61-21.67-5.19-43.32-7.76-64.95Z"/>
          <path class="cls-7" d="M612.77,48.39c9.22-1.44,18.44-2.61,27.66-3.49.39,3.12.78,6.25,1.16,9.37-5.84.54-11.69,1.2-17.54,1.98.7,5.75,1.41,11.51,2.12,17.27,4.66-.59,9.32-1.12,13.97-1.57.39,3.12.78,6.25,1.17,9.37-4.66.44-9.33.95-13.99,1.53.82,6.69,1.65,13.39,2.47,20.09,5.89-.7,11.77-1.29,17.66-1.76.39,3.13.78,6.26,1.18,9.39-9.3.72-18.61,1.74-27.92,3.03-2.66-21.76-5.31-43.49-7.93-65.21Z"/>
          <path class="cls-7" d="M646.23,44.39c5.01-.41,10.01-.73,15.02-.95,10.5-.44,15.65,4.66,16.96,14.87.17,1.36.35,2.72.52,4.07.88,6.83-.69,11.16-4.98,13.1,0,.06.02.13.02.19,5.29,1.55,7.6,6.52,8.56,14.01.5,3.89,1,7.78,1.51,11.67.42,3.23.82,5.6,2.16,8.09-3.47-.07-6.94-.08-10.41-.05-.77-1.7-1.28-2.73-1.97-8.12-.52-4.04-1.04-8.07-1.55-12.11-.78-6.14-2.8-8.11-7.43-7.95-1.17.04-2.35.09-3.52.15,1.19,9.42,2.39,18.85,3.59,28.29-3.41.13-6.82.3-10.23.51-2.77-21.95-5.52-43.87-8.25-65.77ZM663.63,71.78c3.79-.15,5.89-1.89,5.21-7.18-.22-1.7-.43-3.4-.65-5.1-.6-4.72-2.43-6.77-6.03-6.62-1.54.07-3.07.14-4.61.22.79,6.28,1.58,12.56,2.38,18.84,1.23-.06,2.47-.11,3.7-.16Z"/>
          <path class="cls-7" d="M692.31,52.81c-3.53-.14-7.07-.22-10.6-.26-.41-3.16-.81-6.32-1.22-9.48,10.43.07,20.86.59,31.28,1.61.42,3.19.84,6.39,1.26,9.58-3.53-.36-7.06-.66-10.59-.9,2.5,19.1,5.01,38.22,7.53,57.36-3.4-.3-6.81-.55-10.22-.75-2.5-19.07-4.98-38.13-7.45-57.16Z"/>
          <path class="cls-7" d="M720.24,45.61c4.57.57,9.13,1.24,13.7,2.01,6.5,23.13,13.06,46.45,19.67,69.96-3.4-.78-6.8-1.5-10.21-2.17-1.22-4.61-2.45-9.21-3.67-13.81,0,.06.02.13.03.19-3.86-.71-7.72-1.34-11.58-1.91-.03,4.31-.06,8.62-.09,12.93-3.16-.46-6.31-.87-9.47-1.23.56-22,1.1-43.99,1.62-65.98ZM737.32,92.39c-3.01-11.42-6.01-22.8-8.99-34.14-.06,0-.12-.02-.18-.03,0,10.9.01,21.79.02,32.69,3.05.45,6.11.94,9.16,1.48Z"/>
          <path class="cls-7" d="M754.29,102.1c-.18-1.3-.35-2.6-.53-3.89,3.21.75,6.41,1.55,9.62,2.4.21,1.56.43,3.13.64,4.69.67,4.89,2.94,7.19,6.19,8.13,3.24.94,5.03-.18,4.33-5.29-.78-5.67-3.32-10.01-10.81-17.98-9.57-10.16-13.08-16.2-14.13-24-1.44-10.65,2.96-15.87,12.78-13.27,9.82,2.66,15.55,10.66,17.07,21.66.13.95.26,1.9.39,2.85-3.19-1.06-6.38-2.06-9.57-3-.16-1.18-.32-2.35-.48-3.53-.67-4.9-2.77-7.31-5.98-8.19-3.22-.88-4.81.52-4.17,5.21.68,5,3.29,9.08,10.77,17.18,9.57,10.48,13.02,17.05,14.21,25.59,1.55,11.28-2.94,15.57-12.96,12.59-10.02-2.92-15.88-10.23-17.36-21.15Z"/>
          <path class="cls-7" d="M787.98,89.33c-1.33-9.61-2.66-19.22-3.98-28.82,3.36,1.18,6.73,2.42,10.09,3.73,1.34,9.65,2.68,19.3,4.02,28.96.6,7.2,1.19,14.41,1.79,21.62-2.53-1.02-5.05-2.01-7.58-2.96-1.45-7.52-2.9-15.02-4.35-22.52ZM792.3,119.25c3.27,1.22,6.54,2.51,9.81,3.86.49,3.51.98,7.02,1.47,10.54-3.27-1.37-6.55-2.67-9.82-3.91-.49-3.5-.97-6.99-1.46-10.49Z"/>
        </g>
      </g>
      <path class="cls-7" d="M901.53,340.31l-51.61-18.57c-11.36-4.09-17.31-16.73-13.22-28.09l19.84-55.15c4.09-11.36,16.73-17.31,28.09-13.22l51.61,18.57c11.36,4.09,17.31,16.73,13.22,28.09l-19.84,55.15c-4.09,11.36-16.73,17.31-28.09,13.22"/>
      <path class="cls-2" d="M904.32,343.91c-1.25-.24-2.5-.58-3.72-1.02l-51.61-18.57c-6.19-2.23-11.14-6.75-13.96-12.73-2.82-5.99-3.14-12.69-.92-18.87l19.84-55.15c2.23-6.19,6.75-11.14,12.73-13.96,5.98-2.82,12.69-3.14,18.87-.92l51.61,18.57c12.82,4.61,19.49,18.79,14.88,31.61l-19.84,55.15c-2.23,6.19-6.75,11.14-12.73,13.96-4.8,2.26-10.07,2.92-15.15,1.94ZM880.82,227.08c-3.95-.76-8.05-.25-11.78,1.51-4.66,2.19-8.17,6.04-9.9,10.85l-19.84,55.15c-1.73,4.8-1.47,10.01.72,14.67,2.19,4.66,6.04,8.17,10.85,9.9l51.61,18.57c4.8,1.73,10.01,1.47,14.67-.72,4.66-2.19,8.17-6.04,9.9-10.85l19.84-55.15c1.73-4.8,1.47-10.01-.72-14.67-2.19-4.66-6.04-8.17-10.85-9.9l-51.61-18.57c-.95-.34-1.91-.6-2.88-.79Z"/>
      <path class="cls-7" d="M988.31,330.34c-1.86,9.76-14.86,17.77-27.8,13.72-9.64-3.02-13.46-10.6-13.46-10.6,0,0-.74.98-1.92,2.05-2.24,2.01-6.08,4.32-9.62.92-4.87-4.68,5.07-17.82,5.07-17.82,0,0-.03-.14-.09-.41-.46-2.06-2.74-11.81-7.24-23.54-3.44-8.94-8.17-19.04-14.36-27.8-1.55-2.19-1.84-4.27-1.27-6.21.19-.65.48-1.28.84-1.9,3.09-5.23,11.93-9.2,17-11.13,2.2-.83,3.69-1.29,3.69-1.29,2.18,2.28,4.54,5.44,6.97,9.26,8.31,13.03,17.62,33.85,24.64,54.62,4.66,13.77,17.87,7.13,17.78,17.86,0,.76-.08,1.53-.23,2.28"/>
      <g class="cls-14">
        <path class="cls-2" d="M988.31,330.34c-1.86,9.76-14.86,17.77-27.8,13.72-9.64-3.02-13.46-10.6-13.46-10.6,0,0-.74.98-1.92,2.05.76-1.77,2.64-6.06,3.33-6.2,4.97-1.01,8.66,9.08,20.35,10.55,7.92.99,14.62-3.97,19.5-9.51"/>
      </g>
      <g class="cls-14">
        <path class="cls-2" d="M940.5,318.2c-.46-2.06-2.74-11.81-7.24-23.54-3.44-8.94-8.16-19.04-14.36-27.8-1.55-2.19-1.84-4.27-1.27-6.21l18.05-1.02s4.88,22.5,7.12,41.9c1.05,9.08-.59,14.04-2.28,16.67"/>
      </g>
      <path class="cls-2" d="M962.57,347.41c-.97-.19-1.93-.43-2.89-.73-6.6-2.07-10.76-6.07-13-8.87-1.64,1.4-3.93,2.86-6.57,3.07-2.38.19-4.62-.66-6.5-2.47-5.68-5.46,1.2-16.44,4.02-20.42-1.34-5.71-7.81-30.94-20.98-49.55-2.04-2.88-2.56-6-1.53-9.03,3.24-9.43,21.19-15.11,23.22-15.73.99-.3,2.07-.02,2.79.73,9.52,9.96,22.48,36.05,32.23,64.9h0c1.97,5.83,5.55,7.12,9.33,8.48,3.86,1.39,8.66,3.12,8.59,10.28-.05,5.57-3.13,10.98-8.45,14.85-5.81,4.23-13.21,5.82-20.27,4.46ZM947.57,330.76c.83.16,1.55.69,1.94,1.46.03.05,3.5,6.6,11.83,9.21,6.23,1.96,13.06.86,18.27-2.94,3.84-2.79,6.15-6.7,6.18-10.45.03-3.12-1.09-3.66-4.96-5.06-4.16-1.5-9.86-3.56-12.68-11.9h0c-8.98-26.56-21.05-51.39-29.85-61.6-6.71,2.29-16.36,7-17.97,11.72-.29.84-.52,2.18.81,4.06,15.53,21.94,21.88,51.52,22.14,52.77.16.78-.02,1.59-.5,2.23-3.99,5.29-7.13,12.48-5.36,14.18.97.94,1.74.99,2.24.95,2.13-.16,4.52-2.72,5.2-3.6.57-.75,1.5-1.16,2.44-1.08.09,0,.18.02.27.04Z"/>
      <path class="cls-7" d="M884.61,230.99l-5.45,9.04-3.91,6.46-9.77,16.19s-2.74-.32-7.19-1.82c-1.6-.54-3.43-1.24-5.42-2.13-5.59-2.49-12.55-6.52-19.78-12.99-26.88-24.02-26.6-55.36-26.6-55.36l36.04-11.75c-1.6,19.89,9.75,33.22,21.07,41.45.97.71,1.94,1.37,2.9,2,3.31,2.18,6.52,3.92,9.29,5.27,1.29.62,2.49,1.17,3.56,1.62,3.2,1.37,5.26,2.01,5.26,2.01"/>
      <g class="cls-14">
        <path class="cls-2" d="M884.61,230.99l-9.36,15.5-9.77,16.19s-5.08-.59-12.61-3.95c-5.6-2.49-12.55-6.53-19.78-12.99-26.88-24.02-26.6-55.37-26.6-55.37l14.77-4.81c6.53,10.49,4.78,30.86,11.16,45.09,6.3,14.06,25.71,16.87,38.25,10.22,4.23-2.24,7.41-7.52,10.51-11.15,2.14.86,3.43,1.25,3.43,1.25"/>
      </g>
      <path class="cls-2" d="M863.69,265.17c-4.39-.84-17.87-4.36-32.44-17.38-27.49-24.57-27.53-56.11-27.52-57.44l.02-1.98,41.85-13.64-.33,4.12c-2.88,35.78,39.72,49.37,40.15,49.51,1.45.45,2.26,1.99,1.82,3.44-.45,1.45-1.99,2.26-3.44,1.82-.48-.15-11.89-3.73-23.05-12.22-13.82-10.51-21.06-23.89-21.12-38.93l-30.3,9.88c.49,7.05,3.78,31.85,25.6,51.35,16.01,14.31,30.74,16.24,30.88,16.26,1.51.19,2.58,1.55,2.4,3.06-.18,1.51-1.54,2.58-3.05,2.41-.11-.01-.62-.08-1.47-.24Z"/>
      <path class="cls-2" d="M827.59,242.38c-.73-.14-1.31-.74-1.39-1.52-.09-.95.6-1.79,1.54-1.88,12.84-1.26,26.88-16.32,27.76-24.35.1-.94.95-1.63,1.9-1.52.94.1,1.63.95,1.52,1.9-1.11,10.18-17.25,26.06-30.84,27.4-.17.02-.34,0-.49-.02Z"/>
      <path class="cls-7" d="M796.16,186.49c.09.26.19.53.3.79-.04-.23-.07-.46-.11-.67l-.19-.12Z"/>
      <path class="cls-7" d="M840.67,192.35c-10.88,16.18-28.2,7.86-32.68,4.83-9.36-6.33-9.29-17.34-9.29-17.34l12.38-7.89,5.9-4.57,4.9.31c5.81-5.03,15.85-9.45,19.15-5.35,0,0,9.03,16.05-.35,30"/>
      <g class="cls-14">
        <path class="cls-2" d="M832.66,184.47c-2.05,5.54-5.36,4.96-6.76,12.26-.08.42-.14,4.83.37,5.13-7.96,1.04-15.54-2.81-18.29-4.67-9.36-6.33-9.29-17.34-9.29-17.34l.97-.62,11.4-7.27,3.53-2.73c4.83.04,9.48.65,11.77,1.5,1.75.65,3.23,1.71,4.36,3.03,2.47,2.85,3.34,6.93,1.93,10.72"/>
      </g>
      <g class="cls-14">
        <path class="cls-2" d="M843.42,168.28c-1.66.99-3.23,2.13-4.56,3.28l-4.9-.31-3.23,2.5c-1.14-1.32-2.61-2.38-4.36-3.03-2.28-.85-6.94-1.46-11.77-1.5l2.37-1.83,4.9.31c5.81-5.03,15.85-9.45,19.15-5.35,0,0,1.3,2.31,2.4,5.93"/>
      </g>
      <g class="cls-14">
        <path class="cls-2" d="M814.6,169.22l-3.53,2.73-11.4,7.27c-.93-1.99-1.02-3.94-.37-5.69,1.21-3.25,8.43-4.37,15.3-4.32"/>
      </g>
      <path class="cls-7" d="M841.02,162.35c-4.38-5.44-20.62,4.12-23.11,10.19-1.9,4.64,2.2,10.62,11.07,7.1,8.99-3.57,18.91-8.73,12.03-17.28"/>
      <path class="cls-7" d="M827.99,185.53l.37-.06c-.16-.27-.31-.52-.44-.79.01.28.03.56.07.85"/>
      <g class="cls-14">
        <path class="cls-2" d="M831.18,174.86c1.95-2.73-9.63,1.76-13.42-1.91-1.2,3.89,3,7.97,9.7,5.27,1.21-2.33,3.72-3.36,3.72-3.36"/>
      </g>
      <path class="cls-7" d="M798.69,179.85c0,.11,0,.96.19,2.26l.28.17-.48-2.44Z"/>
      <path class="cls-2" d="M840.15,195.05c-.35-.07-.7-.21-1.01-.42-1.26-.85-1.59-2.56-.75-3.82,7.7-11.44,1.37-24.88.36-26.87-.7-.61-2.27-.46-2.95-.37-5.77.84-13.94,6.59-15.34,10-.32.77-.11,1.52.55,2.06,1.27,1.03,4.23,1.24,8.35-1.58,1.26-.86,2.97-.53,3.82.72.86,1.25.53,2.97-.72,3.82-6.61,4.52-12.04,3.64-14.91,1.31-2.57-2.08-3.43-5.39-2.18-8.43,2.23-5.43,12.32-12.3,19.64-13.36,4.55-.66,6.95.99,8.15,2.49.09.12.18.24.25.38.4.72,9.75,17.7-.46,32.88-.63.94-1.75,1.37-2.8,1.17Z"/>
      <path class="cls-2" d="M807.46,199.88c-.35-.07-.7-.21-1.02-.42-10.59-7.16-9.43-20.45-9.38-21.01.15-1.51,1.49-2.62,3-2.47,1.51.14,2.62,1.49,2.47,3-.02.18-.84,10.64,6.98,15.93,1.26.85,1.59,2.56.74,3.82-.64.94-1.75,1.36-2.8,1.16Z"/>
      <path class="cls-7" d="M929.65,316.15c-4.52,20.92-12.73,43.05-27.9,59.79,0,0,5.89,13.79,2.76,23.01-1.29,3.77-4.08,6.79-9.43,7.76-13.25,2.42-22.89-1.63-27.86-13.08-2.97-6.83-3.88-19.44,1.38-30.95,4.59-10.03,11.01-19.59,14.02-30.36,0,0-12.71-1.46-23.41-7.52-5.13-2.91-9.8-6.87-12.37-12.25-3.16-6.58-2.98-14.47-1.01-22.57.91-3.76,2.21-7.57,3.74-11.32,2.48-6.06,5.56-11.96,8.62-17.24,6.13-10.62,12.12-18.78,12.73-20.77,0,0,.89-2.5,3.17-5.63,1.26-1.73,2.96-3.67,5.16-5.48,5.98-4.9,15.73-8.89,30.94-5.64,17.81,3.81,23.52,15.25,25.16,24.28.83,4.58.62,8.54.4,10.57-.09.92-.19,1.44-.19,1.44-.28,7.75-.61,20.38-2.41,35.03-.36,2.94-.78,5.96-1.27,9.03-.62,3.9-1.36,7.88-2.23,11.92"/>
      <path class="cls-2" d="M936.91,259.68c.16,5.13.19,10.29.08,15.44-.13,5.16-.41,10.32-.87,15.47-.24,2.57-.51,5.15-.83,7.72-.32,2.57-.69,5.13-1.1,7.69-.82,5.12-1.79,10.22-3,15.28-1.22,5.05-2.62,10.08-4.31,15.02-1.69,4.94-3.62,9.8-5.83,14.55-2.22,4.75-4.76,9.36-7.66,13.75-2.89,4.4-6.1,8.6-9.69,12.46l.45-2.66h0c.6,1.46,1.06,2.8,1.51,4.21.44,1.4.84,2.82,1.17,4.26.68,2.88,1.14,5.84,1.18,8.92.03,3.06-.37,6.31-1.88,9.38-1.5,3.07-4.44,5.61-7.61,6.64-.39.13-.79.29-1.18.39l-1.19.28-.59.13-.55.09-1.11.17c-.73.13-1.48.2-2.23.26l-1.12.11-1.14.04c-3.02.1-6.13-.16-9.16-1.04-3.02-.87-5.92-2.39-8.34-4.46-2.43-2.07-4.34-4.63-5.78-7.34-.36-.68-.67-1.37-1-2.06-.17-.34-.3-.71-.45-1.08-.14-.37-.3-.73-.41-1.1-.25-.73-.48-1.47-.66-2.21-.21-.74-.35-1.48-.5-2.22-.58-2.97-.78-5.96-.72-8.95.14-5.96,1.38-11.91,3.84-17.39,2.39-5.31,5.18-10.24,7.73-15.22,2.55-4.96,4.87-9.95,6.31-15.13h0s2.13,3.16,2.13,3.16c-1.39-.16-2.64-.36-3.93-.59-1.28-.23-2.56-.49-3.83-.79-2.54-.59-5.04-1.33-7.52-2.18-4.94-1.73-9.81-4-14.14-7.31-2.16-1.65-4.17-3.59-5.87-5.82-.42-.56-.85-1.12-1.21-1.73l-.57-.9-.5-.94c-.16-.32-.35-.62-.48-.95l-.41-.98-.4-.98-.2-.49-.15-.5-.59-2.02c-.17-.68-.27-1.36-.41-2.05-.06-.34-.13-.68-.18-1.03l-.1-1.03c-.06-.68-.15-1.37-.17-2.05l-.03-2.04c-.03-.68.06-1.35.09-2.03.05-1.35.26-2.67.43-4,.83-5.27,2.39-10.29,4.28-15.11,1.93-4.81,4.2-9.44,6.64-13.94,1.25-2.24,2.48-4.47,3.83-6.64.66-1.09,1.34-2.17,2.02-3.24l2.12-3.18c1.43-2.1,2.9-4.17,4.41-6.19l2.26-3.02c.37-.5.75-.99,1.1-1.48.36-.48.7-.99.9-1.33l.16-.26c.35-.58,1.11-.77,1.69-.42.49.3.7.88.55,1.4-.11.39-.25.82-.38,1.11-.13.32-.26.65-.41.94-.28.6-.57,1.18-.86,1.75-.6,1.13-1.2,2.26-1.82,3.35-1.23,2.21-2.5,4.38-3.74,6.55-2.5,4.34-5.01,8.65-7.32,13.05-2.3,4.4-4.39,8.89-6.15,13.47-1.72,4.58-3.14,9.27-3.83,13.98-.33,2.35-.46,4.71-.39,7.02.01.58.1,1.14.14,1.72l.08.86c.04.28.1.56.15.84.11.55.19,1.12.33,1.66l.47,1.61c1.35,4.25,4.2,7.84,7.9,10.66,7.44,5.61,17.21,8.71,26.64,10.26l2.93.48-.8,2.68h0c-1.6,5.71-4.08,11-6.68,16.07-2.6,5.07-5.37,9.98-7.61,14.97-2.17,4.82-3.28,10.14-3.4,15.46-.05,2.66.12,5.33.63,7.9.14.64.25,1.29.43,1.91.15.63.35,1.24.55,1.85.09.31.22.59.33.88.12.29.21.58.37.87.28.58.55,1.17.85,1.74,1.2,2.27,2.74,4.3,4.62,5.9,1.87,1.6,4.07,2.76,6.47,3.46,2.4.7,4.98.94,7.59.85l.98-.03.99-.09c.66-.06,1.31-.12,1.97-.23l.99-.15.49-.08.44-.1.87-.2c.29-.07.55-.19.83-.28.57-.16,1.03-.46,1.55-.69.45-.31.93-.58,1.32-.95.8-.7,1.49-1.54,1.98-2.55,1-2.01,1.38-4.51,1.34-7.07-.03-2.57-.43-5.22-1.05-7.83-.31-1.31-.67-2.61-1.07-3.9-.4-1.27-.87-2.6-1.35-3.75h0s-.63-1.43-.63-1.43l1.08-1.24c3.27-3.76,6.25-7.77,8.93-11.99,2.66-4.23,5.07-8.62,7.2-13.17,2.11-4.55,3.96-9.24,5.58-14.01,1.62-4.77,3.06-9.61,4.28-14.52,1.2-4.91,2.27-9.87,3.14-14.86.44-2.5.85-5,1.2-7.52.38-2.51.72-5.03,1.03-7.55,1.29-10.1,2.06-20.26,3.05-30.5.07-.69.68-1.19,1.37-1.13.64.06,1.11.59,1.13,1.21h0Z"/>
      <g class="cls-14">
        <path class="cls-2" d="M929.65,316.15c-.69.11-1.4.1-2.13-.03-5.19-.97-12.39-2.76-17.26-5.81l-.8,2.55c-1.11,3.54-4.92,5.53-8.46,4.41l-35.14-11.05c-3.54-1.11-5.52-4.92-4.41-8.46l.64-2.04c-5.11-.79-10.7-2.97-14.78-4.82-.55-.25-1.04-.56-1.48-.94.91-3.76,2.21-7.57,3.74-11.32.52-.03,1.06,0,1.59.1.34.07.67.16,1,.28,3.85,1.41,9.15,3.2,13.84,4.23l1.44-4.59c1.11-3.53,4.92-5.52,8.46-4.41l35.14,11.05c2.83.89,4.67,3.5,4.72,6.32.01.71-.08,1.43-.31,2.14l-1.35,4.3c4.77,2.29,11.49,4.28,16.23,5.53.55.14,1.07.36,1.54.63-.62,3.9-1.36,7.88-2.23,11.92"/>
      </g>
      <path class="cls-7" d="M868.24,289.99c-6.09.49-14.3-2.6-19.78-5.08-3.29-1.49-4.69-5.39-3.12-8.64,1.44-2.96,4.88-4.36,7.97-3.23,5.25,1.92,13.21,4.55,18.62,5.02"/>
      <g class="cls-10">
        <path class="cls-2" d="M868.24,289.99c-6.09.49-14.3-2.59-19.78-5.08-3.29-1.49-4.69-5.39-3.12-8.64.33-.69.78-1.3,1.31-1.8.38,1.97,1.68,3.73,3.65,4.62,5.47,2.48,13.67,5.56,19.76,5.08l-1.81,5.83Z"/>
      </g>
      <path class="cls-2" d="M861.75,291.21c-4.87-.94-10-2.93-13.99-4.74-2.01-.91-3.54-2.56-4.29-4.64-.75-2.08-.64-4.33.33-6.32,1.83-3.78,6.18-5.53,10.11-4.09,7.72,2.83,14.17,4.58,18.18,4.92.87.07,2.88.69,2.87,4.78-.01,4.05-2.11,10.21-6.57,10.57-2.05.17-4.32-.04-6.63-.49ZM851.98,274.45c-2.05-.39-4.15.62-5.1,2.57-.56,1.15-.63,2.45-.19,3.65.43,1.2,1.31,2.15,2.47,2.67,7.81,3.53,14.53,5.28,18.93,4.93h0c1.11-.09,1.96-1.6,2.28-2.25,1.23-2.53,1.28-5.37.99-6.29-5.49-.57-13.14-3.06-18.65-5.08-.24-.09-.49-.16-.74-.21Z"/>
      <path class="cls-7" d="M909.54,302.97c4.71,3.88,13.21,6.05,19.13,7.15,3.55.66,6.94-1.74,7.5-5.3.52-3.25-1.51-6.37-4.69-7.21-5.41-1.43-13.44-3.82-18.15-6.54"/>
      <g class="cls-10">
        <path class="cls-2" d="M928.67,310.13c-5.92-1.1-14.42-3.27-19.13-7.16l1.85-5.8c4.71,3.88,13.2,6.04,19.11,7.14,2.13.39,4.2-.31,5.64-1.71.14.71.16,1.47.04,2.22-.57,3.57-3.96,5.97-7.5,5.3"/>
      </g>
      <path class="cls-2" d="M927.81,311.71c-6.3-1.21-14.56-3.46-19.36-7.41h0c-3.46-2.85-1.65-9.1.66-12.43,2.33-3.36,4.34-2.71,5.09-2.28,3.48,2.01,9.78,4.27,17.73,6.36,4.05,1.07,6.61,5,5.95,9.14-.35,2.19-1.54,4.1-3.35,5.37-1.81,1.27-4,1.75-6.17,1.35-.18-.03-.36-.07-.55-.1ZM912.84,292.78c-.77.59-2.35,2.95-2.79,5.73-.11.71-.28,2.43.58,3.14h0c3.34,2.75,9.65,5.12,17.82,6.69.17.03.35.07.53.1,1.25.23,2.52-.04,3.56-.78,1.05-.74,1.73-1.84,1.93-3.1.38-2.39-1.09-4.66-3.43-5.28-5.68-1.5-13.38-3.83-18.2-6.5Z"/>
      <path class="cls-7" d="M916.61,287.78l-6,19.08c-1.11,3.54-4.92,5.53-8.46,4.42l-35.14-11.05c-3.54-1.11-5.52-4.92-4.41-8.46l6-19.08c1.11-3.54,4.92-5.53,8.46-4.41l35.14,11.05c2.83.89,4.66,3.5,4.72,6.32.01.71-.08,1.43-.31,2.14"/>
      <g class="cls-14">
        <path class="cls-2" d="M916.61,287.78l-6,19.08c-1.11,3.54-4.92,5.53-8.46,4.42l-35.14-11.05c-3.54-1.11-5.52-4.92-4.41-8.46l2.02-6.42c5.01,5.26,17.47,15.25,25.03,14.02,4.77-.78,6.86-7.42,6.86-7.42,0,0,10.63-3.63,11.14,2.26,1.01,11.6,8.08-6.73,9.28-8.56.01.71-.08,1.43-.31,2.14"/>
      </g>
      <path class="cls-2" d="M902.59,313.16c-.32-.06-.64-.14-.95-.24l-35.15-11.05c-4.45-1.4-6.94-6.16-5.54-10.61l6-19.09c1.4-4.45,6.16-6.94,10.61-5.54l35.14,11.05c4.45,1.4,6.94,6.16,5.54,10.61l-6,19.09c-.68,2.15-2.15,3.91-4.16,4.96-1.72.9-3.64,1.18-5.5.82ZM875.98,269.78c-2.47-.48-4.97.97-5.74,3.43l-6,19.09c-.83,2.64.64,5.47,3.29,6.3l35.15,11.05c1.28.4,2.63.28,3.83-.35,1.19-.62,2.07-1.67,2.47-2.94l6-19.09c.83-2.64-.64-5.47-3.29-6.3l-35.14-11.05c-.19-.06-.37-.11-.56-.14Z"/>
      <path class="cls-3" d="M907.6,295.44c-.96,3.07-4.23,4.77-7.29,3.8-3.06-.96-4.77-4.23-3.81-7.29.96-3.07,4.23-4.77,7.29-3.8,3.07.96,4.77,4.23,3.81,7.29"/>
      <g class="cls-11">
        <path class="cls-7" d="M907.6,295.44c-.15.47-.35.9-.59,1.31.15-2.6-1.47-5.07-4.07-5.89-2.6-.82-5.34.28-6.7,2.5.03-.47.11-.94.26-1.41.96-3.07,4.23-4.77,7.29-3.8,3.07.96,4.77,4.23,3.8,7.29"/>
      </g>
      <g class="cls-10">
        <path class="cls-2" d="M907.6,295.44c-.96,3.07-4.23,4.77-7.29,3.8-3.06-.96-4.77-4.23-3.81-7.29.16-.51.39-.99.67-1.42-.08,2.55,1.53,4.94,4.07,5.74,2.55.8,5.24-.24,6.62-2.38-.02.51-.1,1.04-.27,1.55"/>
      </g>
      <path class="cls-2" d="M900.77,300.42c-.26-.05-.52-.12-.77-.2-1.74-.55-3.17-1.74-4.02-3.37-.85-1.62-1.01-3.48-.46-5.22.55-1.75,1.74-3.17,3.37-4.02,1.62-.85,3.48-1.01,5.22-.46,3.6,1.13,5.61,4.99,4.48,8.59-.55,1.75-1.74,3.17-3.37,4.02-1.38.72-2.94.95-4.45.66ZM902.95,288.99c-1.05-.2-2.14-.05-3.11.46-1.13.59-1.97,1.59-2.35,2.81-.38,1.22-.27,2.52.32,3.65.59,1.13,1.59,1.97,2.81,2.35,2.52.79,5.21-.61,6-3.13.38-1.22.27-2.52-.32-3.65-.59-1.13-1.59-1.97-2.81-2.35-.18-.06-.36-.1-.54-.14Z"/>
      <path class="cls-2" d="M880.98,306.42c-.06-.01-.13-.03-.19-.05-.91-.28-1.41-1.25-1.12-2.16l2.89-9.21c.7-2.24.31-4.72-1.06-6.63-1.99-2.79-2.57-6.4-1.54-9.67l2.72-8.66c.28-.91,1.26-1.41,2.16-1.12.91.28,1.41,1.25,1.12,2.16l-2.72,8.66c-.7,2.24-.31,4.72,1.06,6.63,1.99,2.78,2.57,6.4,1.54,9.66l-2.89,9.21c-.26.84-1.12,1.34-1.96,1.17Z"/>
      <path class="cls-7" d="M863.36,319.04c-.45,5.93-1.03,12.66-1.63,19.42-1.04,11.71-9.13,36.93-30.69,31.56-13.76-3.42-20.35-13-6.75-36.13,0,0-9.62-38.82,8.9-50.72,4.97-3.19,10.36-4.16,15.24-3.09l1.48.39c17.81,6.29,23.55,30.05,23.55,30.05"/>
      <g class="cls-14">
        <path class="cls-2" d="M904.51,398.94c-1.29,3.77-4.08,6.79-9.43,7.76-13.25,2.42-22.89-1.63-27.86-13.08-2.97-6.84-3.88-19.44,1.38-30.95,4.59-10.03,11.01-19.59,14.02-30.36,0,0-12.14-2.74-19.8-6.37-.25,3.04-.63,7.46-1.08,12.53-1.04,11.72-9.12,36.93-30.69,31.56-9.29-2.31-15.32-7.43-14.06-17.63,2.24,4.29,6.81,6.89,12.7,8.35,21.57,5.36,29.65-19.85,30.69-31.56.11-1.22,2.82-14.56,3.52-16.36,0,0,7.93,5.81,13.47,8.92,7.28,4.09,19.98,6.32,29.08,6.36,1.05,0,1.5,1.33.66,1.96-7.15,5.42-25.98,20.5-31.65,33.19-4.62,10.36-7.96,29.04,6.25,36.14,6.48,3.24,15.01,2.05,22.78-.45"/>
      </g>
      <path class="cls-2" d="M864.61,319.13c.06,4.82-.08,9.63-.29,14.43-.04,1.2-.11,2.4-.18,3.6-.04.61-.06,1.18-.1,1.82-.04.64-.1,1.27-.17,1.9-.32,2.5-.8,4.96-1.46,7.38-1.35,4.82-3.27,9.54-6.13,13.86-1.44,2.14-3.15,4.18-5.18,5.93-2.03,1.75-4.38,3.23-6.98,4.17-2.59.94-5.37,1.35-8.08,1.27-2.7-.08-5.36-.63-7.79-1.39-1.24-.38-2.48-.84-3.69-1.41-1.22-.56-2.42-1.22-3.55-2.04-1.14-.81-2.22-1.76-3.17-2.86-.94-1.11-1.73-2.37-2.33-3.7-.6-1.33-1-2.74-1.2-4.14-.21-1.4-.28-2.79-.18-4.14.16-2.71.76-5.27,1.55-7.7,1.59-4.87,3.91-9.28,6.45-13.48h0s-.27,1.87-.27,1.87c-.37-1.57-.66-3.04-.93-4.56-.27-1.51-.51-3.02-.71-4.54-.42-3.04-.69-6.09-.83-9.17-.26-6.14.02-12.39,1.55-18.58.77-3.08,1.92-6.14,3.62-8.98,1.69-2.83,3.99-5.43,6.8-7.35,2.74-1.89,5.85-3.27,9.19-3.91,1.67-.32,3.38-.44,5.1-.36.86.05,1.7.14,2.57.29.95.16,1.62.38,2.39.57l.11.03.1.04c1.7.63,3.37,1.37,4.94,2.28,1.56.92,3.05,1.93,4.41,3.09,2.74,2.3,5.09,4.97,7.08,7.83,1.96,2.88,3.71,5.88,4.97,9.08.65,1.59,1.19,3.22,1.62,4.88.43,1.67.75,3.32.88,5.1.05.7-.48,1.31-1.17,1.36-.53.04-1.01-.26-1.23-.7l-.03-.06c-1.41-2.88-2.83-5.8-4.32-8.59-1.51-2.8-3.05-5.55-4.9-8.06-1.85-2.5-3.93-4.81-6.28-6.72-1.17-.96-2.42-1.8-3.7-2.57-1.29-.76-2.65-1.36-4.04-1.88l.2.06c-.68-.18-1.45-.41-1.98-.48-.6-.11-1.25-.18-1.89-.22-1.28-.07-2.57.03-3.85.25-2.55.45-5.06,1.51-7.25,3-2.15,1.44-3.95,3.4-5.34,5.69-1.39,2.29-2.41,4.89-3.11,7.6-1.41,5.45-1.67,11.3-1.43,17.1.13,2.91.39,5.82.79,8.72.19,1.45.43,2.89.68,4.33.25,1.42.55,2.9.86,4.24l.23.96-.5.91h0c-2.27,4.08-4.37,8.26-5.68,12.55-.66,2.14-1.11,4.3-1.19,6.38-.05,1.04-.01,2.06.14,3.03.14.98.41,1.89.8,2.74,1.46,3.45,5.19,5.7,9.37,6.97,2.13.67,4.23,1.07,6.32,1.14,2.09.08,4.13-.21,6.06-.88,3.86-1.36,7.12-4.34,9.65-7.95,2.51-3.64,4.35-7.88,5.66-12.26.64-2.2,1.19-4.43,1.55-6.68.09-.56.18-1.12.25-1.68.08-.56.14-1.18.21-1.77.14-1.19.27-2.38.43-3.57.59-4.76,1.25-9.51,2.11-14.25v-.02c.13-.68.78-1.14,1.46-1.01.6.11,1.03.63,1.03,1.22"/>
      <path class="cls-2" d="M883.2,329.3c1.17.07,2.33.3,3.51.54,1.18.23,2.39.43,3.6.62,1.21.17,2.44.36,3.67.51l3.69.43h.04c.69.08,1.19.71,1.11,1.4-.07.57-.5,1-1.04,1.1-1.29.23-2.55.4-3.83.53-1.28.12-2.56.24-3.86.29-1.29.06-2.59.07-3.91.04-1.31-.03-2.64-.16-3.94-.54-1.33-.4-2.09-1.8-1.7-3.13.34-1.14,1.42-1.86,2.56-1.79h.08Z"/>
      <path class="cls-7" d="M979.28,225.73h0c-.69-.24-1.05-1-.81-1.69l12.74-35.94c.24-.69,1-1.05,1.69-.81,7.23,2.56,11.01,10.5,8.45,17.73l-4.34,12.25c-2.56,7.23-10.5,11.01-17.73,8.45"/>
      <path class="cls-2" d="M981.21,226.76c-.7-.13-1.4-.32-2.1-.57h0c-.94-.34-1.44-1.38-1.11-2.32l12.74-35.94c.16-.46.49-.82.93-1.03.44-.21.93-.23,1.39-.07,3.62,1.28,6.52,3.9,8.18,7.37,1.65,3.47,1.86,7.37.57,10.99l-4.34,12.26c-2.4,6.78-9.4,10.64-16.26,9.32ZM979.45,225.26c6.96,2.47,14.63-1.19,17.1-8.15l4.34-12.26c1.19-3.37,1-7.01-.53-10.24-1.54-3.23-4.24-5.67-7.62-6.86-.21-.07-.43-.06-.63.03-.2.1-.35.26-.42.47l-12.74,35.94c-.15.43.07.91.5,1.06h0Z"/>
      <g class="cls-10">
        <path class="cls-2" d="M999.04,211.53l-2.04,5.75c-2.56,7.23-10.5,11.01-17.73,8.45-.69-.24-1.05-1-.8-1.69l3.38-9.55c.04.5.37.96.87,1.14l.85.3c5.71,2.03,11.87.09,15.46-4.39"/>
      </g>
      <path class="cls-2" d="M980.79,228.98c-.81-.16-1.62-.37-2.42-.66h0c-2.12-.75-3.23-3.08-2.48-5.2l12.74-35.94c.36-1.02,1.1-1.85,2.09-2.32.98-.47,2.09-.53,3.11-.16,4.19,1.48,7.55,4.51,9.46,8.52,1.91,4.01,2.15,8.53.66,12.72l-4.34,12.26c-2.78,7.84-10.88,12.31-18.82,10.78ZM981.58,223.52c5.38,1.14,10.95-1.84,12.84-7.17l4.34-12.25c.99-2.8.84-5.83-.44-8.51-1.07-2.25-2.83-4.04-5.02-5.14l-11.72,33.08ZM980.2,223.13s0,0,0,0c0,0,0,0,0,0h0ZM993.8,189.02h0s0,0,0,0Z"/>
      <path class="cls-7" d="M874.28,145.26h0c.69.24,1.05,1,.81,1.69l-12.73,35.94c-.24.69-1,1.05-1.69.81-7.23-2.56-11.01-10.5-8.45-17.73l4.34-12.25c2.56-7.23,10.5-11.01,17.73-8.45"/>
      <path class="cls-2" d="M860.76,184.23c-.09-.02-.18-.04-.26-.07-3.62-1.28-6.53-3.9-8.18-7.37-1.65-3.47-1.86-7.37-.57-10.99l4.34-12.25c2.65-7.47,10.89-11.4,18.36-8.75.94.33,1.44,1.37,1.11,2.32l-12.74,35.94c-.3.86-1.19,1.34-2.06,1.18ZM872.16,145.19c-6.39-1.23-12.91,2.37-15.14,8.68l-4.34,12.25c-1.19,3.37-1,7.01.53,10.24,1.54,3.23,4.24,5.67,7.62,6.86.43.15.91-.07,1.06-.51l12.74-35.94c.15-.43-.07-.91-.51-1.06h0c-.65-.23-1.3-.41-1.95-.53Z"/>
      <g class="cls-10">
        <path class="cls-2" d="M865.89,172.92l-3.53,9.97c-.24.69-1,1.05-1.69.81-3.79-1.35-6.64-4.17-8.12-7.6-1.33-3.1-1.55-6.69-.33-10.12l1.83-5.16c.45,5.26,3.9,10.03,9.2,11.91l1.31.46c.48.17.98.05,1.33-.26"/>
      </g>
      <path class="cls-2" d="M860.34,186.45c-.2-.04-.4-.09-.59-.16-4.19-1.48-7.55-4.51-9.46-8.52-1.91-4.01-2.15-8.53-.66-12.72l4.34-12.25c3.06-8.65,12.58-13.19,21.24-10.12h0c2.12.75,3.23,3.08,2.48,5.2l-12.74,35.94c-.68,1.92-2.67,3.01-4.61,2.64ZM871.74,147.41c-5.31-1.02-10.73,1.97-12.59,7.22l-4.34,12.25c-.99,2.8-.84,5.83.44,8.51,1.07,2.25,2.83,4.04,5.02,5.14l11.72-33.08c-.08-.02-.16-.03-.25-.05Z"/>
      <g class="cls-14">
        <path class="cls-2" d="M946.11,255.59c-3.34,1.14-6.76,2.01-10.26,2.6-5.69.96-11.54,1.16-17.39.55-6.5-.67-13.01-2.34-19.32-5.1-7.68-3.35-14.4-8.02-19.98-13.62-1.77-1.77-3.43-3.63-4.96-5.57-3.04-3.83-5.61-7.99-7.7-12.36,3.31,2.18,6.52,3.92,9.29,5.27,1.29.62,2.49,1.17,3.56,1.62,5.98-4.9,15.73-8.89,30.94-5.64,17.81,3.81,23.52,15.25,25.16,24.28,2.2-.83,3.69-1.29,3.69-1.29,2.18,2.28,4.54,5.44,6.97,9.26"/>
      </g>
      <path class="cls-7" d="M986.33,211.49c-14.35,32.89-52.65,47.91-85.54,33.56-32.89-14.35-47.91-52.65-33.56-85.54,14.35-32.89,52.65-47.91,85.54-33.56,32.89,14.35,47.91,52.65,33.56,85.54"/>
      <path class="cls-2" d="M914.55,249.83c-4.74-.91-9.41-2.36-13.95-4.34-33.08-14.44-48.25-53.1-33.81-86.19,6.99-16.03,19.81-28.37,36.09-34.76,16.28-6.39,34.07-6.05,50.1.94,16.03,7,28.37,19.81,34.76,36.09,6.39,16.28,6.05,34.07-.94,50.1l-.45-.2.45.2c-6.99,16.03-19.81,28.37-36.09,34.76-11.67,4.58-24.13,5.7-36.15,3.39ZM938.85,122.13c-11.84-2.28-24.11-1.17-35.61,3.34-16.03,6.29-28.66,18.45-35.55,34.23-14.22,32.58.72,70.66,33.3,84.89,32.58,14.22,70.66-.72,84.89-33.3,6.89-15.78,7.22-33.31.93-49.34-6.29-16.03-18.45-28.66-34.23-35.55-4.46-1.95-9.07-3.37-13.74-4.27Z"/>
      <g class="cls-10">
        <path class="cls-2" d="M989.36,202.99c-.8,2.86-1.8,5.69-3.03,8.49-14.36,32.88-52.65,47.91-85.54,33.56-32.88-14.36-47.91-52.65-33.56-85.54.41-.95.85-1.88,1.3-2.8-8.64,30.74,6.49,63.91,36.58,77.05,31.94,13.94,68.98.17,84.24-30.76"/>
      </g>
      <path class="cls-2" d="M914.25,251.37c-4.85-.93-9.64-2.41-14.28-4.44-33.88-14.79-49.41-54.38-34.62-88.25,7.16-16.41,20.29-29.05,36.96-35.59,16.67-6.54,34.89-6.19,51.3.97,16.41,7.16,29.05,20.29,35.59,36.96,6.54,16.67,6.2,34.89-.97,51.3l-1.89-.83,1.89.83c-7.16,16.41-20.29,29.05-36.96,35.59-11.95,4.69-24.71,5.84-37.02,3.47ZM938.55,123.67c-11.55-2.22-23.52-1.14-34.74,3.26-15.64,6.14-27.96,18-34.68,33.4-13.88,31.79.7,68.94,32.49,82.82,15.4,6.72,32.5,7.04,48.14.91,15.64-6.14,27.96-18,34.68-33.4,6.72-15.4,7.04-32.5.91-48.14-6.14-15.64-18-27.96-33.4-34.68-4.35-1.9-8.85-3.29-13.4-4.17Z"/>
      <path class="cls-2" d="M985.48,212.93c-4.91,11.73-13.27,21.02-23.56,27.31-7.71,4.71-32.72,8.13-57.59-2.02-23.06-9.41-38.84-30.41-40.89-39.21-2.74-11.73-1.99-24.22,2.92-35.94,12.99-31.04,45.04-32.74,77.94-18.97,32.9,13.77,54.17,37.8,41.18,68.83"/>
      <g class="cls-11">
        <path class="cls-7" d="M960.9,196.08c-3.46,5.33-3.13,11.68.73,14.18,3.86,2.5,9.79.22,13.25-5.11,3.46-5.33,3.13-11.68-.73-14.18-3.86-2.5-9.79-.22-13.25,5.11"/>
      </g>
      <g class="cls-11">
        <path class="cls-7" d="M946.25,214.71c-1.91,2.2-1.93,5.32-.04,6.95,1.89,1.64,4.97,1.18,6.88-1.02,1.91-2.2,1.93-5.32.04-6.95-1.89-1.64-4.97-1.18-6.88,1.02"/>
      </g>
      <g class="cls-10">
        <path class="cls-8" d="M986.01,179.13c4.37,10,4.68,21.33-.54,33.8-4.91,11.73-13.28,21.02-23.55,27.31-7.71,4.71-32.73,8.13-57.6-2.02-8.78-3.58-16.5-8.84-22.82-14.48,30.84,11.82,61.35,7.55,70.91,1.7,13.05-7.97,23.67-19.77,29.89-34.66,1.67-3.98,2.88-7.87,3.7-11.66"/>
      </g>
      <path class="cls-2" d="M991.42,185.26c-.49-.09-.94-.4-1.19-.88l-.11-.2-.06-.23c-4.17-18.36-20.26-34.63-44.16-44.63-24.03-10.06-47.01-9.84-63.03.61l-.29.15c-.83.35-1.8-.01-2.2-.84-.4-.82-.09-1.79.68-2.24,16.99-11.04,41.11-11.35,66.18-.86,24.92,10.43,41.75,27.56,46.17,47.01.19.75-.15,1.57-.86,1.95-.36.19-.76.24-1.13.17Z"/>
      <g class="cls-11">
        <path class="cls-7" d="M872,187.13s3.2-34.64,24.81-39.93c21.61-5.29,45.33,4.69,44.13,5.98,0,0-28.94-4.64-47.92,11.83-14.64,12.7-21.02,22.12-21.02,22.12"/>
      </g>
      <path class="cls-9" d="M812.62,50.24l29.03,312.84c.21,2.24-1.44,4.22-3.68,4.43-2.24.21-4.22-1.44-4.43-3.67l-29.03-312.84c-.21-2.24,1.44-4.23,3.68-4.43,1.12-.1,2.17.26,2.98.92.8.67,1.35,1.64,1.46,2.76"/>
      <g class="cls-14">
        <rect class="cls-2" x="798.57" y="173.87" width="39.09" height="8.15" transform="translate(488.87 947.73) rotate(-79.11)"/>
      </g>
      <path class="cls-2" d="M838.17,369.56c-3.37.31-6.36-2.17-6.67-5.54l-29.03-312.84c-.31-3.37,2.17-6.36,5.54-6.67,3.37-.31,6.36,2.17,6.67,5.54l29.03,312.84c.31,3.37-2.17,6.36-5.54,6.67ZM808.38,48.61c-1.1.1-1.92,1.08-1.81,2.18l29.03,312.84c.1,1.1,1.08,1.92,2.18,1.81s1.92-1.08,1.81-2.18l-29.03-312.84c-.1-1.1-1.08-1.92-2.18-1.81Z"/>
      <path class="cls-7" d="M800.32,181.23c2.59,4.92,14.77,7.95,19.59,4.71,4.1-2.76.47-6.87-.57-7.93-.16-.17-.26-.26-.26-.26,0,0,4.84-1.13,5.93-5.07.07-.25.13-.52.16-.81.6-4.59-11.43-9.39-17.07-8.87-4.22.39-5.93,1.98-6.44,3.78-.55,1.91.25,4.04.81,5.19.26.53.46.84.46.84,0,0-4.67,4.46-2.6,8.4"/>
      <g class="cls-14">
        <path class="cls-2" d="M802.46,171.99c3.18,1.91,9.6,5.23,16.88,6.03-.16-.17-.26-.26-.26-.26,0,0,4.84-1.13,5.93-5.07-4.44.66-16.64,1.67-23.35-5.9-.55,1.91.25,4.04.81,5.19"/>
      </g>
      <g class="cls-14">
        <path class="cls-2" d="M800.32,181.23c2.59,4.92,14.77,7.95,19.59,4.71,2.01-1.36,2.16-3.04,1.67-4.52-.23.22-.49.43-.79.64-4.81,3.24-17,.21-19.59-4.71-.27-.51-.43-1.03-.49-1.55-.84,1.57-1.37,3.56-.39,5.43"/>
      </g>
      <path class="cls-2" d="M809.93,189.6c-.49-.09-.99-.2-1.49-.33-5.05-1.27-9-3.8-10.56-6.76-1.94-3.68-.21-7.59,1.74-10.12-.75-1.81-1.46-4.61-.31-7.23.74-1.69,2.53-3.87,6.87-4.67.53-.1,1.09-.18,1.66-.23,5.48-.5,16.58,3.2,19.37,8.53.6,1.14.82,2.3.66,3.46-.41,3.13-2.39,5.26-4.48,6.59.7,1.24,1.25,2.76,1.14,4.38-.1,1.39-.71,3.39-3.11,5h0c-2.64,1.78-6.87,2.27-11.51,1.38ZM811.71,166.01c-1.24-.24-2.41-.34-3.36-.25-.39.03-.77.09-1.14.16-.91.17-2.45.57-2.84,1.46-.5,1.12.4,3.22.89,4,.69,1.11.51,2.55-.43,3.45-.66.64-2.97,3.41-2.06,5.12.65,1.23,3.13,3.01,7.03,3.99,3.56.9,7.01.78,8.58-.28,0,0,0,0,0,0,.44-.3.67-.57.69-.81.06-.83-1.05-2.33-1.84-3.05-.75-.69-1.07-1.74-.81-2.73.26-.99,1.04-1.76,2.03-1.99.02,0,3.64-.93,3.99-3.54h0s-.02-.07-.08-.18c-1.07-2.05-6.35-4.53-10.65-5.35Z"/>
      <path class="cls-7" d="M824.79,170.08c-2.06-3.95-11.79-7.52-16.7-7.06-.51.04-.98.11-1.41.2-.86-1.87-1.7-5.13,1.06-7.81,3.92-3.8,17.89.1,21.15,6.34,2.23,4.28-.95,7.1-4.1,8.34"/>
      <path class="cls-2" d="M824.27,172.78c-.8-.15-1.52-.66-1.92-1.43-1.38-2.64-9.76-5.99-14.01-5.6-.4.03-.77.09-1.14.16-1.24.24-2.49-.4-3.02-1.55-1.89-4.11-1.29-8.09,1.65-10.93,2.08-2.02,5.74-2.73,10.29-1.99,5.54.89,12.64,4.1,15.21,9.03,1.47,2.82,1.14,5.13.6,6.58-1.21,3.25-4.36,4.9-6.13,5.59-.5.2-1.03.24-1.52.14ZM812.77,160.64c4.49.86,9.77,3.04,12.75,5.94.62-.46,1.07-.97,1.25-1.46.08-.21.32-.86-.32-2.11-1.38-2.66-6.32-5.35-11.21-6.15-2.98-.48-4.98-.07-5.58.51-.38.37-1.23,1.19-1.03,2.85,1.21-.03,2.63.12,4.14.41Z"/>
      <path class="cls-2" d="M813.56,179.95c-7.01-1.35-11.94-4.68-12.2-4.85-1.25-.86-1.57-2.57-.72-3.82.86-1.25,2.57-1.57,3.82-.72.12.08,6.59,4.38,14.63,4.45,1.51.01,2.74,1.25,2.73,2.77-.01,1.52-1.26,2.74-2.77,2.73-1.93-.02-3.77-.23-5.49-.56Z"/>
      <path class="cls-7" d="M840.67,192.35l-10.95-2.09c-.19-.32-.38-.63-.53-.95-3.58-7,1.52-12.74,1.72-12.96-8.91,6.08-14.89.83-12.99-3.81.34-.81.92-1.7,1.69-2.59,4.95-5.78,17.63-12.31,21.42-7.59,0,0,9.03,16.05-.35,29.99"/>
      <g class="cls-14">
        <path class="cls-2" d="M829.18,189.31c-3.58-7,1.52-12.74,1.72-12.96-8.91,6.08-14.89.83-12.99-3.81.34-.81.92-1.7,1.69-2.59.04,1.6.8,3.18,3.52,3.51,5.82.72,10.75-4.98,12.31-.56,1.58,4.48-5.41,11.19-6.25,16.41"/>
      </g>
      <path class="cls-2" d="M838.59,190.95c1.3-1.98,2.34-4.11,2.95-6.39.64-2.27.92-4.65.87-7.05-.03-2.4-.42-4.82-1.03-7.19-.31-1.18-.68-2.35-1.11-3.5-.22-.57-.44-1.14-.69-1.69-.12-.28-.25-.55-.38-.82-.12-.26-.28-.56-.37-.74l.23.34c-.22-.25-.51-.44-1.05-.57-.53-.12-1.24-.14-2-.05-.76.08-1.57.28-2.37.52-.81.24-1.62.55-2.42.91-3.2,1.42-6.32,3.45-8.78,5.83-.6.6-1.15,1.22-1.59,1.83-.22.3-.4.61-.53.88l-.1.2-.04.17c-.02.11-.1.22-.09.32-.1.43.02.82.2,1.19.21.36.51.73,1,.96.93.53,2.37.58,3.82.22,1.47-.36,2.95-1.13,4.37-2.06h0c.97-.82,2.42-.7,3.24.27.53.62.67,1.45.44,2.18l-.42,1.32c-.03.1-.2.36-.31.56-.12.22-.24.43-.36.66-.12.22-.22.45-.34.67l-.31.68c-.39.91-.68,1.84-.85,2.77-.18.94-.22,1.89-.16,2.9-.01.51.09,1.02.13,1.58.06.55.2,1.1.23,1.74v.25c.05.72-.5,1.33-1.22,1.37-.35.02-.67-.1-.91-.31-1.09-.93-2.02-2.13-2.56-3.55-.31-.7-.47-1.45-.62-2.21-.06-.38-.07-.77-.1-1.15-.04-.39-.02-.77,0-1.16.08-1.55.45-3.06,1.07-4.43.33-.68.67-1.35,1.1-1.96.21-.31.43-.61.67-.9.25-.31.47-.54.85-.91l3.25,3.76h0c-1.79,1.17-3.74,2.22-6,2.79-.57.13-1.13.28-1.75.31l-.91.08c-.31,0-.63-.02-.94-.03-.62,0-1.27-.15-1.91-.29-.32-.06-.64-.21-.95-.32-.32-.12-.63-.23-.93-.42-1.23-.62-2.33-1.69-3.04-3-.7-1.31-1.01-2.91-.73-4.38.04-.37.18-.71.27-1.07.06-.17.11-.35.17-.52l.21-.45c.28-.6.61-1.11.95-1.59.68-.95,1.41-1.76,2.17-2.52,1.52-1.49,3.16-2.75,4.87-3.89,1.72-1.12,3.51-2.13,5.42-2.96.95-.42,1.94-.8,2.97-1.11,1.03-.31,2.09-.58,3.24-.71,1.15-.13,2.38-.16,3.72.14.33.06.67.18,1.01.31.34.11.68.3,1.01.48.34.17.65.44.96.67.3.25.56.56.83.85.07.08.13.17.18.26l.05.09c.22.4.36.68.52,1.02.16.32.3.64.45.97.29.65.55,1.29.8,1.95.49,1.31.92,2.64,1.27,4,.7,2.71,1.14,5.51,1.19,8.35.06,2.84-.27,5.73-1.06,8.51-.76,2.79-2.04,5.43-3.62,7.83-.76,1.15-2.31,1.47-3.47.71-1.15-.76-1.47-2.31-.71-3.47l.02-.04Z"/>
      <path class="cls-5" d="M819.4,41.72c-1.2,6.23-7.21,10.3-13.44,9.1-6.23-1.2-10.3-7.21-9.1-13.44,1.2-6.22,7.21-10.3,13.44-9.1,6.22,1.2,10.3,7.21,9.1,13.44"/>
      <path class="cls-2" d="M805.58,52.85c-7.33-1.41-12.15-8.52-10.74-15.85,1.41-7.33,8.52-12.15,15.86-10.74,7.33,1.41,12.15,8.52,10.74,15.85-1.41,7.33-8.52,12.15-15.85,10.74ZM809.91,30.3c-5.1-.98-10.04,2.37-11.02,7.47-.98,5.1,2.37,10.04,7.47,11.02,5.1.98,10.04-2.37,11.02-7.47s-2.37-10.04-7.47-11.02Z"/>
      <path class="cls-2" d="M935.85,306.51c-.19-.04-.38-.11-.56-.21-.81-.49-1.08-1.54-.6-2.36.11-.19,11.37-18.74,29.36-14.5.92.22,1.5,1.14,1.28,2.07-.22.92-1.15,1.5-2.07,1.28-.27-.06-.55-.12-.82-.17-15.04-2.89-24.71,12.93-24.8,13.09-.38.64-1.11.94-1.8.81Z"/>
      <path class="cls-2" d="M902.54,354.72c-12.19-2.35-24.08-11.02-24.84-11.58-1.22-.9-1.48-2.62-.58-3.85.9-1.22,2.62-1.48,3.85-.58,6.97,5.14,27.07,16.59,36.25,7.87,1.1-1.05,2.84-1,3.89.1,1.05,1.1,1,2.84-.1,3.89-5.08,4.83-11.82,5.43-18.47,4.15Z"/>
      <path class="cls-2" d="M825.9,286.77c.22-.19.44-.37.68-.54.13-.1.21-.14.31-.2l.29-.16c.4-.24.73-.37,1.09-.53.69-.29,1.36-.5,2.02-.68,1.32-.35,2.63-.6,3.94-.73,2.62-.32,5.24-.25,7.85.09,2.6.37,5.19,1.04,7.65,2.11,2.45,1.08,4.77,2.53,6.77,4.35,2,1.82,3.67,3.98,4.97,6.29,1.31,2.32,2.16,4.82,2.76,7.33,1.13,5.04,1.16,10.13.39,15.01-.11.69-.75,1.16-1.44,1.05-.6-.09-1.03-.59-1.06-1.17h0c-.29-4.75-.89-9.4-2.26-13.69-1.36-4.28-3.6-8.14-6.84-10.88-3.21-2.77-7.35-4.41-11.68-5.01-2.17-.32-4.39-.37-6.58-.2-1.09.07-2.17.25-3.19.48-.51.11-.99.26-1.43.4-.2.08-.44.15-.56.22l-.11.05s-.09.04-.08.04c0,0-.02,0-.05,0l-2.81-.81c-.88-.25-1.38-1.16-1.13-2.04.09-.32.27-.59.5-.79"/>
      <g class="cls-13">
        <path class="cls-2" d="M820.85,55.67s.08.03.12.04l-.35-.65c.09.2.16.41.24.6Z"/>
      </g>
      <g>
        <path class="cls-4" d="M820.17,102.47l-.16.79-.74.31c-.2.08-.22.36-.03.47l.7.4.07.8c.02.22.28.32.44.17l.6-.54.79.18c.21.05.39-.17.3-.36l-.33-.74.42-.69c.11-.19-.04-.42-.25-.4l-.8.09-.53-.61c-.14-.17-.41-.09-.46.12Z"/>
        <path class="cls-1" d="M820.01,105.25c.02.22.28.32.44.17l.6-.54.79.18c.21.05.39-.17.3-.36l-.1-.23c-.04.12-.17.2-.31.17l-.79-.18-.6.54c-.11.1-.25.09-.35,0l.02.25Z"/>
        <g class="cls-12">
          <path class="cls-7" d="M821.96,102.87l-.93.11.15.17.78-.09.03-.06s.04-.09.03-.13c-.02,0-.04,0-.06,0Z"/>
        </g>
        <g class="cls-12">
          <path class="cls-7" d="M819.21,103.6s.05.07.09.1l.12.07s.04-.02.06-.03l.74-.31.16-.79c.03-.15.18-.23.31-.2l-.07-.08c-.14-.16-.41-.09-.46.12l-.16.79-.74.31s-.04.02-.05.03Z"/>
        </g>
        <path class="cls-1" d="M821.72,104.06l.49-.8c.09-.15.01-.33-.14-.38l-.51.83.16.35Z"/>
        <path class="cls-1" d="M819.24,104.04l.81.44-.03-.38-.85-.46c-.1.12-.08.31.07.4Z"/>
        <path class="cls-2" d="M820.19,105.64s-.05-.01-.08-.02c-.15-.06-.26-.2-.27-.36l-.06-.72-.63-.36c-.14-.08-.22-.23-.21-.39,0-.16.11-.3.26-.37l.67-.28.15-.71c.03-.16.15-.28.31-.33.16-.04.32,0,.43.13l.47.55.72-.08c.16-.02.32.06.41.19.09.14.09.31,0,.45l-.37.62.3.66c.07.15.04.32-.06.44-.1.13-.26.18-.43.14l-.7-.16-.53.49c-.1.09-.24.13-.37.1ZM820.45,102.42s-.04,0-.05,0c-.02,0-.06.02-.07.08l-.18.87-.82.35c-.05.02-.06.07-.06.09,0,.02,0,.07.05.09l.78.44.08.89c0,.06.05.08.06.09.02,0,.06.02.1-.02l.66-.6.87.2c.06.01.09-.02.1-.03.01-.01.04-.05.01-.11l-.37-.81.46-.76s0-.09,0-.11c0-.02-.04-.05-.1-.05l-.89.1-.58-.68s-.04-.03-.06-.03ZM820.17,102.47h0s0,0,0,0Z"/>
      </g>
    </g>
  </g>
</svg>