<?xml version="1.0" encoding="UTF-8"?>
<svg id="Capa_2" data-name="Capa 2" xmlns="http://www.w3.org/2000/svg" viewBox="0 0 1723.89 572.36">
  <defs>
    <style>
      .cls-1 {
        fill: #fcac38;
      }

      .cls-1, .cls-2, .cls-3, .cls-4, .cls-5 {
        stroke-width: 0px;
      }

      .cls-2 {
        fill: #371a45;
      }

      .cls-3 {
        fill: #5ed9eb;
      }

      .cls-6 {
        opacity: .6;
      }

      .cls-4 {
        fill: #fff;
      }

      .cls-5 {
        fill: #058c96;
      }
    </style>
  </defs>
  <g id="Capa_1-2" data-name="Capa 1">
    <g>
      <g>
        <circle class="cls-4" cx="159.49" cy="326.49" r="4.38"/>
        <circle class="cls-4" cx="158.62" cy="278.48" r="2.31"/>
        <circle class="cls-4" cx="111.87" cy="275.55" r="2.31"/>
        <circle class="cls-4" cx="109.81" cy="250.52" r="4.38"/>
        <circle class="cls-4" cx="384.47" cy="367.4" r="4.38"/>
        <circle class="cls-4" cx="340.65" cy="390.78" r="4.38"/>
        <circle class="cls-4" cx="264.68" cy="370.32" r="4.38"/>
        <circle class="cls-4" cx="307.3" cy="370.91" r="2.31"/>
        <circle class="cls-4" cx="333.59" cy="324.16" r="2.31"/>
        <circle class="cls-4" cx="268.03" cy="346.25" r="1.03"/>
        <circle class="cls-4" cx="419.97" cy="317.03" r="1.03"/>
        <circle class="cls-4" cx="285.56" cy="284.89" r="1.03"/>
        <circle class="cls-4" cx="200.82" cy="302.42" r="1.03"/>
        <circle class="cls-4" cx="1.03" cy="268.08" r="1.03"/>
        <circle class="cls-4" cx="483.82" cy="370.32" r="4.38"/>
        <circle class="cls-4" cx="647.27" cy="271.22" r="4.38"/>
        <circle class="cls-4" cx="551.61" cy="314.97" r="4.38"/>
        <circle class="cls-4" cx="610.82" cy="356.01" r="2.31"/>
        <circle class="cls-4" cx="615.29" cy="302.55" r="2.31"/>
        <circle class="cls-4" cx="564.85" cy="349.91" r="1.03"/>
        <circle class="cls-4" cx="941.78" cy="370.37" r="1.03"/>
        <circle class="cls-4" cx="690.88" cy="260.15" r="1.03"/>
        <circle class="cls-4" cx="555.28" cy="286.82" r="1.03"/>
        <circle class="cls-4" cx="485.51" cy="338" r="1.03"/>
        <circle class="cls-4" cx="662.06" cy="311.88" r="4.38"/>
        <circle class="cls-4" cx="726.71" cy="272.8" r="4.38"/>
        <circle class="cls-4" cx="892.24" cy="302.53" r="4.38"/>
        <circle class="cls-4" cx="808.16" cy="294.35" r="4.38"/>
        <circle class="cls-4" cx="807.92" cy="340.06" r="2.31"/>
        <circle class="cls-4" cx="847.49" cy="303.84" r="2.31"/>
        <circle class="cls-4" cx="778.3" cy="304.38" r="1.03"/>
        <circle class="cls-4" cx="931.78" cy="324" r="1.03"/>
        <circle class="cls-4" cx="814.09" cy="251.55" r="1.03"/>
        <circle class="cls-4" cx="728.12" cy="241.78" r="1.03"/>
        <circle class="cls-4" cx="70.62" cy="256.95" r="2.31"/>
        <circle class="cls-4" cx="123.21" cy="356.3" r="2.31"/>
        <circle class="cls-4" cx="333.59" cy="271.56" r="2.31"/>
        <circle class="cls-4" cx="1053.93" cy="361.71" r="4.38"/>
        <circle class="cls-4" cx="1035.18" cy="317.49" r="2.31"/>
        <circle class="cls-4" cx="990.73" cy="332.25" r="2.31"/>
        <circle class="cls-4" cx="979.46" cy="309.8" r="4.38"/>
        <circle class="cls-4" cx="1167.87" cy="363.06" r="4.38"/>
        <circle class="cls-4" cx="1207.63" cy="347.68" r="2.31"/>
        <circle class="cls-4" cx="1363.96" cy="408.89" r="2.31"/>
        <circle class="cls-4" cx="1161.99" cy="339.48" r="1.03"/>
        <circle class="cls-4" cx="1155.32" cy="276.01" r="1.03"/>
        <circle class="cls-4" cx="1083.28" cy="323.93" r="1.03"/>
        <circle class="cls-4" cx="945.51" cy="330.41" r="2.31"/>
        <circle class="cls-4" cx="1031.42" cy="402.91" r="2.31"/>
        <circle class="cls-4" cx="1328" cy="300.94" r="2.31"/>
        <circle class="cls-4" cx="1397.38" cy="299.11" r="2.31"/>
        <circle class="cls-4" cx="1373.84" cy="354.92" r="4.38"/>
        <circle class="cls-4" cx="1624.94" cy="21.99" r="2.31"/>
        <circle class="cls-4" cx="1618.85" cy="50.92" r="2.31"/>
        <circle class="cls-4" cx="1649.02" cy="51.5" r="2.31"/>
        <circle class="cls-4" cx="1646.3" cy="26.53" r="4.38"/>
        <circle class="cls-4" cx="1565.87" cy="292.14" r="4.38"/>
        <circle class="cls-4" cx="1706.86" cy="205.25" r="2.31"/>
        <circle class="cls-4" cx="1678.82" cy="159.52" r="2.31"/>
        <circle class="cls-4" cx="1621.14" cy="182.37" r="1.03"/>
        <circle class="cls-4" cx="1687.87" cy="191.25" r="4.38"/>
        <circle class="cls-4" cx="1709.12" cy="154.3" r="2.31"/>
        <circle class="cls-4" cx="1681.08" cy="108.58" r="2.31"/>
        <circle class="cls-4" cx="1668.47" cy="176.6" r="1.03"/>
        <circle class="cls-4" cx="1623.4" cy="131.43" r="1.03"/>
        <circle class="cls-4" cx="1700.32" cy="142.57" r="4.38"/>
        <circle class="cls-4" cx="1721.58" cy="105.62" r="2.31"/>
        <circle class="cls-4" cx="1693.54" cy="59.89" r="2.31"/>
        <circle class="cls-4" cx="1635.85" cy="82.75" r="1.03"/>
        <circle class="cls-4" cx="1644.85" cy="133.51" r="4.38"/>
        <circle class="cls-4" cx="1666.1" cy="96.56" r="2.31"/>
        <circle class="cls-4" cx="1657.36" cy="75.95" r="1.03"/>
        <circle class="cls-4" cx="1598.05" cy="1.03" r="1.03"/>
        <circle class="cls-4" cx="1532.05" cy="318.19" r="2.31"/>
        <circle class="cls-4" cx="1194.9" cy="245.7" r="2.31"/>
        <circle class="cls-4" cx="1420.94" cy="351.57" r="1.03"/>
        <circle class="cls-4" cx="1461.64" cy="281.27" r="1.03"/>
        <circle class="cls-4" cx="1292.63" cy="311.01" r="4.38"/>
        <circle class="cls-4" cx="1305.74" cy="357.21" r="2.31"/>
        <circle class="cls-4" cx="1487.32" cy="334.96" r="2.31"/>
        <circle class="cls-4" cx="1499.82" cy="313.18" r="4.38"/>
        <circle class="cls-4" cx="1179.73" cy="295.52" r="4.38"/>
        <circle class="cls-4" cx="1138.38" cy="305.85" r="2.31"/>
        <circle class="cls-4" cx="1182.64" cy="319.65" r="1.03"/>
        <circle class="cls-4" cx="1181.38" cy="383.45" r="1.03"/>
        <circle class="cls-4" cx="1258.82" cy="344.85" r="1.03"/>
        <circle class="cls-4" cx="1456.31" cy="332.61" r="2.31"/>
        <circle class="cls-4" cx="1605.13" cy="252.6" r="2.31"/>
        <circle class="cls-4" cx="1668.1" cy="207.5" r="2.31"/>
        <circle class="cls-4" cx="1642.79" cy="246.91" r="2.31"/>
        <circle class="cls-4" cx="1619.92" cy="236.53" r="4.38"/>
        <circle class="cls-4" cx="1591.78" cy="274.45" r="1.03"/>
        <circle class="cls-4" cx="1595.95" cy="321.69" r="1.03"/>
        <circle class="cls-4" cx="1583.12" cy="313.63" r="2.31"/>
        <circle class="cls-4" cx="1138.35" cy="408.62" r="2.31"/>
      </g>
      <g>
        <path class="cls-3" d="M1046.92,555.33c34.86,10.68,78.76,17.03,126.46,17.03s91.59-6.36,126.45-17.03c0-.05,0-.11,0-.16,0-.49.02-.98.03-1.47v-.11c.03-2.39,0-4.78-.12-7.18-.02-.47-.04-.94-.07-1.4-.29-5.15-.89-10.31-1.83-15.44-.3-1.66-.64-3.31-1.01-4.97-.28-1.24-.57-2.48-.89-3.71-.21-.82-.43-1.64-.66-2.47-.11-.41-.23-.82-.35-1.23-.23-.82-.48-1.64-.73-2.46-.51-1.63-1.05-3.26-1.63-4.89-.29-.81-.59-1.61-.89-2.42-.46-1.21-.94-2.42-1.44-3.62-.33-.8-.68-1.6-1.03-2.4-.17-.4-.35-.8-.53-1.2-1.44-3.19-3.02-6.34-4.75-9.45-1.01-1.82-2.06-3.6-3.15-5.35-.34-.55-.69-1.1-1.04-1.65-.11-.16-.22-.32-.32-.49-.28-.43-.56-.85-.84-1.28-.52-.78-1.04-1.54-1.57-2.3-.2-.29-.41-.58-.61-.87-.15-.21-.3-.42-.45-.63-.3-.42-.6-.83-.91-1.25-.4-.55-.81-1.08-1.21-1.62-.41-.54-.82-1.07-1.24-1.6-.42-.53-.84-1.05-1.26-1.57,0,0,0,0,0,0-.37-.45-.73-.89-1.1-1.34-.12-.14-.23-.27-.34-.4-.3-.35-.59-.7-.89-1.05-.16-.18-.32-.37-.48-.55-.36-.41-.73-.83-1.1-1.24-.45-.49-.89-.99-1.35-1.47-.45-.49-.91-.97-1.36-1.45-.41-.43-.82-.85-1.24-1.28-.07-.08-.15-.15-.22-.23-.43-.43-.86-.86-1.29-1.29-.01-.02-.03-.03-.05-.05-.94-.93-1.89-1.83-2.86-2.72-.49-.45-.97-.89-1.46-1.33-.99-.89-2-1.75-3.01-2.6-.49-.41-.98-.81-1.48-1.21-.51-.41-1.02-.82-1.53-1.22-.61-.48-1.22-.95-1.84-1.42-.42-.32-.85-.64-1.28-.95-.52-.39-1.05-.77-1.58-1.14-.72-.51-1.44-1.01-2.16-1.51-.3-.21-.6-.41-.91-.61-.17-.12-.35-.24-.53-.35-.25-.17-.5-.33-.75-.5-.14-.09-.27-.18-.41-.27-.05-.03-.09-.06-.14-.09-.52-.34-1.05-.68-1.58-1.01-1.06-.66-2.13-1.31-3.21-1.94-.36-.21-.73-.42-1.09-.63-1.08-.62-2.18-1.22-3.28-1.8-.37-.19-.74-.39-1.11-.58-1.99-1.03-4-2.01-6.03-2.93-1.02-.46-2.04-.91-3.07-1.34-2.06-.87-4.14-1.68-6.24-2.44-1.57-.57-3.16-1.11-4.75-1.61-3.19-1.01-6.42-1.89-9.68-2.65-2.17-.51-4.36-.96-6.56-1.34-2.13-.38-4.26-.7-6.41-.97-.14-.02-.27-.04-.41-.05-1.05-.13-2.09-.24-3.14-.34-1.12-.11-2.23-.2-3.35-.28-.56-.04-1.12-.07-1.68-.1-.16,0-.32-.02-.47-.03-.55-.03-1.1-.06-1.65-.08-.55-.02-1.1-.04-1.65-.06-.56-.01-1.12-.02-1.68-.03-1.62-.02-3.25,0-4.88.03l-1.4.04c-.93.03-1.85.07-2.78.13-1.39.08-2.79.19-4.18.32-.93.09-1.85.18-2.78.29h0c-11.14,1.28-22.24,4.06-32.99,8.43-4.15,1.68-8.25,3.6-12.27,5.75-.58.31-1.15.63-1.73.95-.98.55-1.96,1.1-2.92,1.68-.58.34-1.16.69-1.73,1.05-.61.37-1.21.74-1.8,1.12-.8.51-1.59,1.03-2.37,1.55-.19.12-.38.24-.56.37-.2.13-.39.26-.59.41-.54.37-1.08.74-1.61,1.12-.09.06-.17.12-.25.18-.52.37-1.04.74-1.56,1.12-.57.41-1.12.83-1.68,1.25-.56.42-1.11.84-1.65,1.27-.55.43-1.09.86-1.62,1.29-.54.44-1.07.88-1.6,1.32-.53.44-1.05.89-1.57,1.34-.52.45-1.04.9-1.55,1.36-.51.46-1.02.92-1.52,1.38-1.01.92-1.99,1.87-2.96,2.83-2.43,2.39-4.74,4.88-6.94,7.44-1.33,1.53-2.61,3.1-3.85,4.7-.41.53-.82,1.06-1.22,1.6-.4.54-.8,1.08-1.2,1.62-1.19,1.62-2.33,3.28-3.43,4.96-.36.54-.71,1.09-1.06,1.63l-.07.11c-.34.55-.69,1.09-1.02,1.64-.35.57-.69,1.14-1.04,1.72-.34.57-.67,1.15-1,1.73-.66,1.16-1.31,2.33-1.93,3.5-.63,1.18-1.23,2.36-1.81,3.56-.29.6-.58,1.2-.86,1.8-.85,1.8-1.66,3.62-2.41,5.46-.25.62-.5,1.23-.75,1.84-.97,2.46-1.87,4.95-2.69,7.47,0,.04-.02.07-.03.11-.2.6-.39,1.21-.57,1.81-.2.64-.39,1.27-.57,1.91-.18.64-.36,1.28-.54,1.91-.17.64-.35,1.28-.51,1.93-.15.59-.3,1.19-.44,1.78-.03.11-.06.23-.08.34-.14.58-.27,1.16-.4,1.74-.29,1.29-.57,2.59-.81,3.9-.12.65-.24,1.3-.36,1.96-.12.65-.23,1.31-.33,1.96-.1.66-.2,1.31-.3,1.97-.09.6-.17,1.2-.25,1.8,0,.09-.02.19-.04.28-.07.59-.14,1.17-.21,1.76,0,.05,0,.11-.02.16-.07.64-.14,1.29-.2,1.94-.07.66-.12,1.32-.17,1.99-.11,1.33-.19,2.65-.25,3.99-.14,3-.17,6.01-.1,9.02"/>
        <path class="cls-5" d="M1257.28,558.33c2.56,2.2,5.06,4.09,7.47,5.66-.39.08-.79.16-1.19.23-27.23,5.21-57.83,8.14-90.18,8.14-21.82,0-42.84-1.33-62.58-3.8-1.16-.14-2.32-.29-3.47-.44-2.63-.35-5.23-.72-7.8-1.11-1-.15-1.99-.31-2.97-.46-.02,0-.03,0-.05,0-.31-.05-.61-.09-.91-.14-9.29-1.49-18.23-3.24-26.77-5.22-2.64-.61-5.25-1.25-7.82-1.91-3.65-.94-7.23-1.92-10.71-2.94-1.13-.33-2.25-.67-3.37-1.01,0-.07,0-.14,0-.21,0-.44-.02-.88-.02-1.32-.01-1.14,0-2.29,0-3.44,0-.4.01-.8.02-1.21.01-.52.03-1.05.05-1.57.04-1.12.09-2.23.17-3.34.04-.64.08-1.29.14-1.93.05-.66.11-1.32.17-1.99.02-.18.03-.36.06-.54.04-.47.09-.94.14-1.4,0-.05.01-.11.02-.16.07-.59.14-1.17.21-1.76.01-.09.03-.18.04-.28,0-.01,0-.02,0-.04,32.95,20.53,118.86,37.65,180.1,7.52,6.6-3.25,12.23-6.72,17.04-10.34.14,7.46,2.34,16.49,12.22,25"/>
        <path class="cls-5" d="M1299.87,552.79c0,.26,0,.53,0,.8v.11c0,.16,0,.32,0,.47,0,.33-.01.67-.02,1,0,.05,0,.11,0,.16h0c-1.12.34-2.25.68-3.39,1.02-2.06.6-4.14,1.19-6.26,1.76.2-5.41-.57-10.74-.57-10.74,0,0,.5,3.87-7.31,6.53-7.81,2.66-19.49-.22-24.2-11.25-4.71-11.03,1.16-20.42,1.16-20.42,0,0-.34-.82-.77-1.79,15.34-19.18,13.61-39.53,10.96-50.53.15.17.29.34.43.51.11.13.22.26.34.4.37.44.73.89,1.1,1.34,0,0,0,0,0,0,.42.52.84,1.04,1.26,1.57.41.53.83,1.06,1.24,1.6.41.54.81,1.07,1.21,1.62.31.41.61.83.91,1.25.15.21.3.41.45.63.21.29.41.58.61.87.53.76,1.05,1.53,1.57,2.3.28.42.56.85.84,1.28.1.16.21.32.32.49.35.55.69,1.1,1.04,1.65,1.09,1.75,2.14,3.53,3.15,5.36,1.73,3.11,3.31,6.26,4.75,9.44.18.4.36.8.53,1.2.35.8.69,1.6,1.03,2.4.5,1.21.98,2.41,1.44,3.62.31.81.6,1.61.89,2.42.57,1.62,1.12,3.25,1.63,4.89.25.82.5,1.64.73,2.46.12.41.23.82.35,1.23.23.82.45,1.64.66,2.47.32,1.23.61,2.47.89,3.71.37,1.65.71,3.31,1.01,4.97.61,3.33,1.07,6.67,1.4,10.02.1,1.05.2,2.11.28,3.17.03.51.07,1.02.1,1.52.02.25.03.48.05.73.01.25.03.51.04.77,0,.04,0,.07,0,.11.01.17.02.34.03.52.03.76.06,1.53.08,2.29.04,1.37.05,2.73.04,4.1"/>
        <path class="cls-1" d="M1299.26,539.58c-.57,5.65-1.51,11.25-2.82,16.77,1.14-.33,2.27-.67,3.39-1.02.01-.39.02-.77.03-1.16,0-.46.01-.91.01-1.37,0-1.36,0-2.73-.04-4.09-.02-.94-.06-1.87-.11-2.81,0-.04,0-.08,0-.11-.02-.5-.05-1-.08-1.5-.03-.51-.07-1.02-.1-1.52-.08-1.06-.17-2.11-.28-3.17"/>
        <path class="cls-5" d="M1046.89,553.8c0,.44.01.88.02,1.32,0,.07,0,.14,0,.21,1.12.34,2.24.68,3.37,1.01-.05-.21-.1-.42-.15-.64-1.14-4.89-1.97-9.81-2.51-14.73-.04-.39-.08-.79-.12-1.18,0,0,0-.01,0-.02-.02.19-.04.37-.05.56-.07.66-.12,1.32-.17,1.99-.05.64-.09,1.29-.14,1.93-.07,1.11-.13,2.22-.17,3.34-.02.52-.04,1.05-.05,1.57,0,.4-.02.81-.02,1.21-.01,1.14-.02,2.29,0,3.44"/>
        <path class="cls-5" d="M1061,559.28c2.57.66,5.17,1.29,7.82,1.91,8.54,1.98,17.49,3.73,26.77,5.22.3.05.61.09.91.14.01,0,.03,0,.05,0-.03-.16-.07-.33-.11-.49-3.46-15.41-13.78-27.92-23.06-27.95-4.66-.01-8.38,3.22-10.5,8.4-1.44,3.5-2.13,7.89-1.88,12.77"/>
        <path class="cls-2" d="M1103.64,555.62h0c2,3.9,3.2,8.03,3.67,12.24,0,.08.02.17.02.25,1.15.15,2.31.3,3.47.44-.06-.4-.13-.8-.21-1.2-.88-4.58-2.79-9.02-5.81-12.52-.25-.29-.7-.32-.99-.07-.25.21-.31.57-.16.85"/>
        <path class="cls-5" d="M1231.15,465.87c6.94.28,12.4,5.31,12.21,11.23-.19,5.92-5.97,10.49-12.91,10.2-6.94-.29-12.4-5.31-12.21-11.23.19-5.92,5.97-10.49,12.91-10.2"/>
        <path class="cls-3" d="M1231.29,473.3c4.77,2.09,7.18,6.87,5.37,10.68-1.81,3.81-7.14,5.2-11.92,3.11-4.77-2.09-7.18-6.87-5.37-10.68,1.81-3.81,7.14-5.2,11.92-3.11"/>
        <path class="cls-2" d="M1230.47,487.2c2.55-.14,5.01-.83,7.07-2.13,2.05-1.27,3.69-3.15,4.43-5.29.75-2.14.57-4.52-.42-6.53-.97-2.04-2.75-3.68-4.81-4.79-4.13-2.21-9.61-2.12-13.6.46-2,1.26-3.57,3.2-4.24,5.48-.72,2.28-.39,4.86.78,7.12l.02.03c.12.23.03.52-.2.64-.22.11-.49.04-.62-.16-.37-.58-.79-1.14-1.09-1.78-.31-.63-.54-1.31-.72-2-.35-1.39-.37-2.86-.11-4.3.53-2.88,2.3-5.5,4.68-7.19,1.18-.86,2.47-1.57,3.85-2.04,1.38-.46,2.82-.74,4.27-.85,1.45-.08,2.91.03,4.34.31,1.43.31,2.82.79,4.13,1.45,1.32.66,2.51,1.57,3.57,2.61,1.05,1.05,1.97,2.28,2.6,3.66,1.25,2.76,1.42,6.09.22,8.89-.58,1.4-1.45,2.65-2.47,3.7-1.04,1.04-2.25,1.88-3.52,2.53-2.58,1.25-5.47,1.71-8.2,1.36-.33-.04-.56-.34-.52-.67.04-.29.28-.5.56-.52h0Z"/>
        <path class="cls-2" d="M1215.53,469.66c-1.23,2.17-1.92,4.57-1.9,6.96,0,.6.08,1.19.11,1.77l.17.87c.06.29.1.58.21.86.18.56.32,1.13.58,1.66.12.27.22.54.35.8l.44.77.22.38c.08.12.17.24.25.36l.51.72c.36.47.75.91,1.14,1.35.83.84,1.72,1.63,2.72,2.28,1.95,1.36,4.18,2.31,6.51,2.87,4.66,1.12,9.76.63,14.03-1.62,2.11-1.13,4.07-2.64,5.51-4.59,1.45-1.94,2.4-4.26,2.74-6.75h0c.04-.27.28-.46.54-.42.23.03.41.23.42.45.13,2.69-.62,5.45-2.03,7.83-1.43,2.38-3.5,4.34-5.87,5.78-2.36,1.46-5.04,2.38-7.79,2.78-2.75.4-5.56.26-8.27-.35-2.71-.62-5.31-1.79-7.59-3.41-2.26-1.65-4.24-3.77-5.5-6.32-1.28-2.52-1.91-5.41-1.61-8.2.29-2.79,1.41-5.45,3.16-7.52.21-.25.59-.28.84-.07.22.19.27.51.13.75"/>
        <path class="cls-2" d="M1243.98,540.27c.92,3.7,2.36,7.28,4.37,10.5,2.01,3.22,4.5,6.15,7.41,8.58.35.32.73.6,1.11.89l1.13.86,1.18.78c.39.26.79.52,1.21.74l1.24.68c.41.24.85.41,1.27.62.22.11.44.21.66.31,1.4-.27,2.8-.54,4.17-.82l-.14-.06c-.41-.16-.81-.32-1.2-.52l-1.18-.57c-.4-.18-.76-.42-1.14-.63-.37-.22-.76-.41-1.13-.65l-1.09-.72c-.37-.23-.71-.49-1.05-.76l-1.04-.77-.99-.84c-.33-.28-.67-.55-.97-.86-2.5-2.38-4.68-5.09-6.4-8.07-1.71-2.98-3.02-6.2-3.78-9.54-.78-3.33-1.06-6.78-.71-10.16.3-3.39,1.22-6.71,2.72-9.75.75-1.53,1.66-2.96,2.72-4.29,1.05-1.34,2.24-2.57,3.57-3.64,2.64-2.18,5.79-3.78,9.2-4.7h0c.37-.1.59-.48.49-.86-.09-.34-.42-.56-.76-.51-.93.11-1.85.27-2.77.48-.91.23-1.81.51-2.7.84-1.76.69-3.46,1.56-5.04,2.64-1.57,1.09-3.02,2.36-4.31,3.79-1.28,1.43-2.4,3.02-3.34,4.69-1.89,3.36-3,7.12-3.46,10.92-.41,3.81-.16,7.69.74,11.4"/>
        <path class="cls-5" d="M1289.47,532.21c2.21,10.98-3.58,21.48-12.94,23.44-9.35,1.96-18.72-5.35-20.93-16.33-2.21-10.98,3.58-21.48,12.94-23.44,9.35-1.96,18.72,5.35,20.93,16.33"/>
        <path class="cls-3" d="M1274.46,554.47c-6.43.08-12.97-4.3-16.33-11.65-4.47-9.79-1.61-21.17,6.39-25.4,1.13-.6,2.3-1.02,3.5-1.28,4.72,1.92,8.95,5.96,11.52,11.57,4.54,9.95,2.22,21.38-5.08,26.76"/>
        <path class="cls-2" d="M1289.12,528.6c-2.07-3.35-4.86-6.18-8.18-8.01-1.64-.93-3.41-1.61-5.22-1.98-1.8-.38-3.65-.47-5.42-.2-.44.09-.89.13-1.32.25-.43.11-.86.23-1.28.37-.84.28-1.65.65-2.4,1.12-1.53.89-2.86,2.07-3.94,3.47-2.17,2.81-3.2,6.45-3.18,10.08.05,7.32,4.49,14.61,11.09,18.03,1.65.86,3.44,1.42,5.26,1.73.23.03.46.08.69.11l.69.05c.46.05.93.05,1.39.04.93-.02,1.85-.14,2.76-.32,1.83-.38,3.58-1.14,5.16-2.2,1.57-1.06,2.95-2.46,4.07-4.07h0c.2-.3.6-.37.89-.17.26.18.35.53.21.81-.94,1.9-2.25,3.65-3.92,5.06-1.65,1.42-3.62,2.48-5.73,3.15-2.11.67-4.37.85-6.58.67-2.22-.17-4.39-.77-6.41-1.67-4.06-1.8-7.48-4.87-9.9-8.57-.15-.23-.31-.46-.45-.7l-.41-.72-.41-.72-.35-.76c-.22-.51-.49-1-.67-1.52l-.56-1.57c-.65-2.13-1.03-4.35-1.09-6.59-.06-2.25.3-4.51.98-6.68.69-2.16,1.73-4.24,3.16-6.05,1.45-1.8,3.27-3.3,5.29-4.39,1.99-1.14,4.27-1.8,6.52-1.98,2.27-.21,4.54.02,6.69.61,2.14.61,4.15,1.57,5.96,2.78,3.61,2.46,6.4,5.94,8.03,9.83.17.4-.02.87-.43,1.04-.37.15-.78.01-.98-.31h0Z"/>
        <path class="cls-3" d="M1129.06,531.11c-.27,2.5-.25,5.06.08,7.62,2.36,18.18,19.47,30.14,38.23,26.73,14.09-2.57,25.1-13.08,28.71-25.84"/>
        <path class="cls-2" d="M1129.85,531.2c-.12,4.09.43,8.16,1.74,11.95.63,1.89,1.46,3.72,2.45,5.43.98,1.72,2.13,3.34,3.43,4.81,1.31,1.47,2.73,2.83,4.28,4.03,1.55,1.2,3.22,2.24,4.98,3.12,3.49,1.79,7.33,2.85,11.24,3.24,1.95.2,3.93.22,5.9.06l1.47-.15,1.47-.22c.97-.2,1.94-.37,2.91-.6,3.84-.97,7.52-2.6,10.89-4.73,3.34-2.19,6.36-4.91,8.9-8.06,2.53-3.16,4.52-6.76,5.96-10.63h0c.12-.34.49-.51.82-.39.3.11.47.43.4.73-.9,4.19-2.64,8.22-5.04,11.85-2.45,3.59-5.5,6.81-9.06,9.39-3.56,2.58-7.6,4.51-11.85,5.73-4.25,1.22-8.75,1.62-13.18,1.23-4.44-.4-8.8-1.69-12.76-3.75-3.94-2.1-7.48-4.97-10.24-8.47-1.38-1.75-2.58-3.63-3.56-5.61-.97-1.99-1.73-4.07-2.28-6.2-1.04-4.27-1.23-8.71-.45-12.95.08-.43.49-.72.93-.64.39.07.66.42.65.81"/>
        <path class="cls-5" d="M1164.85,511.86c12.49,1.48,21.8,12,20.79,23.48-1,11.48-11.94,19.59-24.43,18.11-12.49-1.48-21.8-12-20.79-23.48,1-11.48,11.94-19.59,24.43-18.11"/>
        <path class="cls-3" d="M1182.9,538.75c-2.05,7.55-8.84,13.59-17.72,14.81-11.82,1.62-22.87-5.91-24.69-16.82-.26-1.54-.32-3.07-.19-4.56,3.6-4.81,9.26-8.28,16.04-9.21,12.01-1.65,23.3,5.27,26.56,15.78"/>
        <path class="cls-2" d="M1160.72,510.95c-4.46,1.15-8.51,3.52-11.53,6.81-1.53,1.62-2.8,3.47-3.76,5.45-.97,1.97-1.64,4.08-1.93,6.23-.06.54-.15,1.07-.17,1.62-.03.54-.04,1.08-.03,1.62.03,1.07.12,2.15.37,3.2.4,2.1,1.14,4.14,2.27,5.94,2.19,3.64,5.7,6.45,9.76,7.82,2.02.69,4.16,1.04,6.32,1.07l1.62-.04,1.61-.2c1.07-.15,2.13-.39,3.18-.7,4.17-1.24,7.94-3.83,10.73-7.22,1.4-1.7,2.52-3.62,3.37-5.67.84-2.05,1.33-4.24,1.46-6.46.28-4.46-.98-9.04-3.68-12.79h0c-.21-.29-.14-.69.14-.9.26-.19.63-.15.84.08,1.67,1.8,3.03,3.94,3.93,6.28.92,2.33,1.38,4.84,1.44,7.37.05,2.53-.37,5.08-1.17,7.49-.8,2.42-2.03,4.69-3.54,6.75-3.03,4.12-7.37,7.29-12.28,8.91-1.23.4-2.48.74-3.76.93l-1.93.26-1.95.08c-2.6,0-5.21-.39-7.7-1.22-4.99-1.64-9.31-5.19-11.99-9.71-1.35-2.26-2.19-4.81-2.61-7.37-.48-2.56-.44-5.23.07-7.75.47-2.54,1.37-4.99,2.61-7.22,1.26-2.22,2.85-4.24,4.7-5.96,3.71-3.43,8.45-5.68,13.35-6.26.44-.05.83.26.88.7.05.4-.21.76-.59.86h0Z"/>
        <path class="cls-1" d="M1153.62,481.74c-15.81,1.73-29.21-6.25-29.94-17.83-.73-11.58,11.5-22.36,27.31-24.09,15.81-1.73,29.21,6.25,29.94,17.83.73,11.58-11.5,22.36-27.31,24.09"/>
        <path class="cls-5" d="M1153.62,481.74c-15.81,1.73-29.21-6.25-29.94-17.83-.73-11.58,11.5-22.36,27.31-24.09,15.81-1.73,29.21,6.25,29.94,17.83.73,11.58-11.5,22.36-27.31,24.09"/>
        <path class="cls-3" d="M1154.1,481.57c-12.05,1.32-22.26-4.76-22.81-13.58-.55-8.82,8.76-17.04,20.81-18.36,12.05-1.32,22.26,4.76,22.81,13.58.55,8.82-8.76,17.04-20.81,18.36"/>
        <path class="cls-2" d="M1173.42,443.13c1.2.71,2.36,1.53,3.41,2.49,1.05.96,1.99,2.05,2.8,3.25,1.61,2.41,2.56,5.3,2.72,8.24.15,2.95-.49,5.91-1.66,8.57-1.19,2.66-2.85,5.07-4.81,7.17-1.94,2.12-4.2,3.91-6.6,5.43-2.41,1.51-4.97,2.77-7.64,3.72-5.33,1.88-11.05,2.78-16.75,2.31-1.42-.13-2.84-.33-4.25-.62-1.4-.3-2.8-.69-4.16-1.17-2.73-.96-5.35-2.35-7.63-4.25-2.29-1.88-4.21-4.32-5.39-7.11-1.2-2.78-1.59-5.89-1.21-8.85.38-2.96,1.47-5.76,3.01-8.18,1.53-2.44,3.44-4.58,5.59-6.39,4.31-3.62,9.44-6.04,14.76-7.31.34-.08.69.13.77.47.08.32-.1.64-.4.75h0c-4.98,1.81-9.63,4.47-13.34,8.07-1.85,1.79-3.47,3.8-4.67,6-1.2,2.2-2.02,4.57-2.21,6.97-.21,2.4.23,4.78,1.21,6.93.98,2.15,2.53,4.03,4.43,5.51,3.83,2.98,8.81,4.57,13.83,4.93,5.04.38,10.2-.34,15.02-2.02,4.83-1.63,9.33-4.27,12.91-7.81,1.79-1.76,3.3-3.8,4.41-6,1.12-2.2,1.78-4.62,1.8-7.05.04-2.43-.57-4.89-1.77-7.07-.6-1.09-1.34-2.13-2.2-3.06-.84-.96-1.81-1.81-2.85-2.59h-.01c-.35-.27-.42-.77-.16-1.12.25-.33.7-.41,1.04-.2"/>
        <path class="cls-2" d="M1115.11,471.37c-.42-1.04-.75-2.11-1-3.21-.24-1.1-.38-2.23-.42-3.37-.1-2.28.23-4.57.85-6.76.63-2.19,1.58-4.28,2.71-6.24,1.14-1.96,2.51-3.76,3.98-5.45,2.94-3.4,6.52-6.22,10.34-8.53,3.86-2.28,8.02-4,12.3-5.22,4.3-1.17,8.75-1.86,13.22-1.9,4.46-.03,8.96.5,13.25,1.81,4.29,1.28,8.4,3.34,11.85,6.27,1.71,1.47,3.24,3.16,4.48,5.04,1.24,1.88,2.16,3.95,2.72,6.1.09.34-.12.69-.46.78-.31.08-.63-.08-.75-.37h0c-1.61-3.86-4.33-7.08-7.65-9.43-3.31-2.39-7.15-3.97-11.12-4.96-3.98-.95-8.11-1.35-12.22-1.17-4.11.16-8.2.8-12.16,1.95-3.96,1.12-7.8,2.68-11.36,4.71-3.58,2.01-6.86,4.5-9.71,7.44-2.82,2.95-5.24,6.31-6.64,10.09-.72,1.88-1.15,3.86-1.28,5.87-.13,2.01.07,4.06.58,6.07h0c.11.43-.15.86-.57.97-.39.1-.79-.11-.93-.47"/>
        <path class="cls-5" d="M1068.82,561.18c8.54,1.98,17.49,3.73,26.77,5.22.3.05.61.09.91.14-.08-.36-.16-.73-.24-1.09-2.81-12.13-10.32-22.26-17.3-23.75-.52-.11-1.04-.17-1.55-.19-6.7-.17-10.23,8.36-8.6,19.67"/>
        <path class="cls-2" d="M1062.35,546.49c.17.08.36.08.53.02.15-.05.28-.15.37-.29h0c1.24-2.05,2.9-3.79,4.9-4.84,2-1.06,4.29-1.4,6.5-1.05,1.49.21,2.93.7,4.31,1.38.68.33,1.35.72,1.99,1.13,1.94,1.27,3.72,2.83,5.28,4.6,3.14,3.53,5.59,7.7,7.3,12.15.88,2.21,1.55,4.5,2.06,6.82.3.05.61.09.91.14.01,0,.03,0,.05,0,.99.16,1.98.31,2.98.46-.56-3.01-1.44-5.96-2.57-8.79-.97-2.4-2.15-4.71-3.53-6.91-1.37-2.19-2.95-4.27-4.77-6.15-.9-.94-1.86-1.83-2.89-2.66-1.02-.82-2.09-1.6-3.24-2.25-2.29-1.32-4.86-2.3-7.59-2.54-2.72-.23-5.56.38-7.85,1.85-1.14.74-2.15,1.65-3,2.66-.84,1.03-1.52,2.16-2.08,3.32-.17.35-.02.77.33.93"/>
        <g class="cls-6">
          <path class="cls-4" d="M1105.8,469.86c-.63,15.29-25.62,27.82-35.32,67.56-4.12,16.86-17.86-2.39-4.34-34,12.54-29.3,40.1-44.33,39.66-33.56"/>
        </g>
        <path class="cls-2" d="M1299.84,557.68s-.04,0-.06,0c-1.3-.03-2.32-1.12-2.29-2.41.22-8.45-.43-16.96-1.94-25.28-2.43-13.33-7.02-26.14-13.65-38.08-10.22-18.39-25-33.95-42.73-45-2.79-1.75-5.66-3.38-8.52-4.86-15.5-8.04-32.9-12.81-50.33-13.79-.09,0-.19,0-.28-.01h-.22c-1.16-.08-2.21-.12-3.21-.14-2.09-.06-4.25-.06-6.45,0-14.92.38-29.5,3.42-43.31,9.04-4.68,1.89-9.3,4.1-13.74,6.57-.92.51-1.9,1.07-2.86,1.64-.59.34-1.14.68-1.69,1.02-37.63,23.01-60.33,64.74-59.27,108.91.03,1.3-1,2.38-2.3,2.41-.02,0-.04,0-.06,0-1.27,0-2.32-1.02-2.35-2.3-.53-22.22,4.73-44.35,15.22-63.98,10.76-20.14,26.76-37.09,46.28-49.03.57-.36,1.17-.72,1.78-1.08.99-.59,2-1.16,2.95-1.7,4.61-2.57,9.41-4.86,14.27-6.82,14.33-5.84,29.46-8.99,44.96-9.39,2.27-.05,4.52-.05,6.68,0,1.03.02,2.13.07,3.33.13.09,0,.18,0,.27.01h.24c18.09,1.03,36.16,5.98,52.26,14.33,2.98,1.54,5.95,3.24,8.85,5.05,18.41,11.46,33.74,27.61,44.35,46.7,6.88,12.39,11.65,25.69,14.17,39.53,1.57,8.64,2.25,17.47,2.02,26.25-.03,1.28-1.08,2.29-2.35,2.29Z"/>
        <path class="cls-2" d="M1299.84,557.68s-.04,0-.06,0c-1.3-.03-2.32-1.12-2.29-2.41.22-8.45-.43-16.96-1.94-25.28-2.43-13.33-7.02-26.14-13.65-38.08-10.22-18.39-25-33.95-42.73-45-2.79-1.75-5.66-3.38-8.52-4.86-15.5-8.04-32.9-12.81-50.33-13.79-.09,0-.19,0-.28-.01h-.22c-1.16-.08-2.21-.12-3.21-.14-2.09-.06-4.25-.06-6.45,0-14.92.38-29.5,3.42-43.31,9.04-4.68,1.89-9.3,4.1-13.74,6.57-.92.51-1.9,1.07-2.86,1.64-.59.34-1.14.68-1.69,1.02-37.63,23.01-60.33,64.74-59.27,108.91.03,1.3-1,2.38-2.3,2.41-.02,0-.04,0-.06,0-1.27,0-2.32-1.02-2.35-2.3-.53-22.22,4.73-44.35,15.22-63.98,10.76-20.14,26.76-37.09,46.28-49.03.57-.36,1.17-.72,1.78-1.08.99-.59,2-1.16,2.95-1.7,4.61-2.57,9.41-4.86,14.27-6.82,14.33-5.84,29.46-8.99,44.96-9.39,2.27-.05,4.52-.05,6.68,0,1.03.02,2.13.07,3.33.13.09,0,.18,0,.27.01h.24c18.09,1.03,36.16,5.98,52.26,14.33,2.98,1.54,5.95,3.24,8.85,5.05,18.41,11.46,33.74,27.61,44.35,46.7,6.88,12.39,11.65,25.69,14.17,39.53,1.57,8.64,2.25,17.47,2.02,26.25-.03,1.28-1.08,2.29-2.35,2.29Z"/>
      </g>
    </g>
  </g>
</svg>