<svg id="google" xmlns="http://www.w3.org/2000/svg" width="24" height="24" viewBox="0 0 24 24">
  <rect id="Rectángulo_15026" data-name="Rectángulo 15026" width="24" height="24" opacity="0"/>
  <g id="google-2" data-name="google" transform="translate(2 1.969)">
    <path id="Trazado_60" data-name="Trazado 60" d="M-58.74,11.377a.437.437,0,0,1,.077-.183,10.15,10.15,0,0,1,6.045-5.081A9.9,9.9,0,0,1-49,5.66a10.189,10.189,0,0,1,6.123,2.46c.09.076.083.112,0,.189q-1.408,1.4-2.81,2.809c-.058.058-.093.068-.163.013A5.869,5.869,0,0,0-48.9,9.879,6.051,6.051,0,0,0-55.263,13.9c-.012.031-.025.062-.038.093l-.759-.584q-1.027-.784-2.054-1.567A7.517,7.517,0,0,0-58.74,11.377Z" transform="translate(59.794 -5.643)" fill="#e94235"/>
    <path id="Trazado_61" data-name="Trazado 61" d="M-55.3,20.232a6.619,6.619,0,0,0,.516,1.137,6,6,0,0,0,4.056,2.9,6.476,6.476,0,0,0,2.149.058,6.064,6.064,0,0,0,2.234-.7c.078-.043.155-.09.232-.135.048.041.1.083.146.122l.924.716q.665.514,1.33,1.028c.287.223.572.449.858.674A8.191,8.191,0,0,1-44.24,27.1a9.422,9.422,0,0,1-3.838,1.387A10.158,10.158,0,0,1-56.1,26.227,9.942,9.942,0,0,1-58.684,23a.415.415,0,0,1-.059-.143c.031-.02.063-.038.093-.061Z" transform="translate(59.795 -8.069)" fill="#34a753"/>
    <path id="Trazado_62" data-name="Trazado 62" d="M-41.026,25.28c-.286-.224-.571-.45-.858-.674q-.664-.515-1.33-1.028l-.924-.716c-.05-.038-.1-.081-.146-.122a5.818,5.818,0,0,0,.72-.565,4.619,4.619,0,0,0,1.325-2.361c.03-.133.029-.134-.1-.134q-2.614,0-5.227,0c-.1,0-.138-.017-.138-.131q.008-1.863,0-3.726c0-.1.02-.125.122-.125q4.655,0,9.31,0c.1,0,.139.021.162.126a8.575,8.575,0,0,1,.206,1.972,11.4,11.4,0,0,1-.91,4.373,9.389,9.389,0,0,1-2.147,3.065A.562.562,0,0,1-41.026,25.28Z" transform="translate(57.96 -7.315)" fill="#4286f3"/>
    <path id="Trazado_63" data-name="Trazado 63" d="M-55.514,18.95l-3.346,2.565c-.029.023-.062.041-.093.061a5.321,5.321,0,0,1-.371-.823,9.947,9.947,0,0,1-.519-1.857,10.56,10.56,0,0,1-.119-2.8,10.282,10.282,0,0,1,.545-2.5,10.643,10.643,0,0,1,.41-.989.489.489,0,0,1,.056-.082,7.517,7.517,0,0,1,.625.463q1.029.78,2.054,1.567l.759.584a8.729,8.729,0,0,0-.218.923,6.354,6.354,0,0,0-.027,1.792A7.85,7.85,0,0,0-55.514,18.95Z" transform="translate(60.005 -6.787)" fill="#f9bb06"/>
  </g>
</svg>
