<svg id="magic" xmlns="http://www.w3.org/2000/svg" width="48" height="48" viewBox="0 0 48 48">
  <rect id="Rectángulo_18305" data-name="Rectángulo 18305" width="48" height="48" fill="#fff" opacity="0"/>
  <path id="Trazado_64" data-name="Trazado 64" d="M198.78,348.678l.6-.122a.741.741,0,0,0,0-1.452l-.6-.122a3.838,3.838,0,0,1-3-3l-.122-.6a.741.741,0,0,0-1.452,0l-.122.6a3.838,3.838,0,0,1-3,3l-.6.122a.741.741,0,0,0,0,1.452l.6.122a3.838,3.838,0,0,1,3,3l.122.6a.741.741,0,0,0,1.452,0l.122-.6A3.838,3.838,0,0,1,198.78,348.678Z" transform="translate(-172.091 -311.587)" fill="#e592b8"/>
  <g id="Grupo_46713" data-name="Grupo 46713">
    <path id="Trazado_65" data-name="Trazado 65" d="M390.2,412.758a.724.724,0,0,1-.724-.724v-1.961a.724.724,0,1,1,1.449,0v1.961A.724.724,0,0,1,390.2,412.758Z" transform="translate(-352.964 -371.905)" fill="#94d8e6"/>
    <path id="Trazado_66" data-name="Trazado 66" d="M390.2,469.078a.724.724,0,0,1-.724-.724v-1.961a.724.724,0,0,1,1.449,0v1.961A.724.724,0,0,1,390.2,469.078Z" transform="translate(-352.964 -422.945)" fill="#94d8e6"/>
    <path id="Trazado_67" data-name="Trazado 67" d="M409.863,449.418H407.9a.724.724,0,1,1,0-1.449h1.961a.724.724,0,1,1,0,1.449Z" transform="translate(-369.004 -406.906)" fill="#94d8e6"/>
    <path id="Trazado_68" data-name="Trazado 68" d="M353.542,449.418H351.58a.724.724,0,1,1,0-1.449h1.961a.724.724,0,1,1,0,1.449Z" transform="translate(-317.963 -406.906)" fill="#94d8e6"/>
    <path id="Trazado_69" data-name="Trazado 69" d="M39.344,315.408a.724.724,0,0,1-.724-.724v-1.961a.724.724,0,0,1,1.449,0v1.961A.724.724,0,0,1,39.344,315.408Z" transform="translate(-34.999 -283.682)" fill="#94d8e6"/>
    <path id="Trazado_70" data-name="Trazado 70" d="M39.344,371.729A.724.724,0,0,1,38.62,371v-1.961a.724.724,0,1,1,1.449,0V371A.724.724,0,0,1,39.344,371.729Z" transform="translate(-34.999 -334.723)" fill="#94d8e6"/>
    <path id="Trazado_71" data-name="Trazado 71" d="M59.007,352.067H57.045a.724.724,0,0,1,0-1.449h1.961a.724.724,0,0,1,0,1.449Z" transform="translate(-51.041 -318.681)" fill="#94d8e6"/>
    <path id="Trazado_72" data-name="Trazado 72" d="M2.686,352.067H.724a.724.724,0,0,1,0-1.449H2.686a.724.724,0,0,1,0,1.449Z" transform="translate(0 -318.681)" fill="#94d8e6"/>
    <path id="Trazado_73" data-name="Trazado 73" d="M391.2,13.37a.724.724,0,0,1-.724-.724V10.684a.724.724,0,0,1,1.449,0v1.961A.724.724,0,0,1,391.2,13.37Z" transform="translate(-353.871 -9.96)" fill="#94d8e6"/>
    <path id="Trazado_74" data-name="Trazado 74" d="M391.2,69.691a.724.724,0,0,1-.724-.724V67.005a.724.724,0,0,1,1.449,0v1.961A.724.724,0,0,1,391.2,69.691Z" transform="translate(-353.871 -61.001)" fill="#94d8e6"/>
    <path id="Trazado_75" data-name="Trazado 75" d="M410.865,50.029H408.9a.724.724,0,0,1,0-1.449h1.961a.724.724,0,1,1,0,1.449Z" transform="translate(-369.912 -44.959)" fill="#94d8e6"/>
    <path id="Trazado_76" data-name="Trazado 76" d="M354.544,50.029h-1.961a.724.724,0,0,1,0-1.449h1.961a.724.724,0,0,1,0,1.449Z" transform="translate(-318.871 -44.959)" fill="#94d8e6"/>
  </g>
  <path id="Trazado_77" data-name="Trazado 77" d="M80.963,29.106l2.871-.582a1.269,1.269,0,0,0,0-2.487l-2.871-.582a7.185,7.185,0,0,1-5.614-5.614l-.582-2.871a1.269,1.269,0,0,0-2.487,0L71.7,19.84a7.185,7.185,0,0,1-5.614,5.614l-2.871.582a1.269,1.269,0,0,0,0,2.487l2.871.582A7.185,7.185,0,0,1,71.7,34.72l.582,2.871a1.269,1.269,0,0,0,2.487,0l.582-2.871A7.185,7.185,0,0,1,80.963,29.106Z" transform="translate(-56.364 -15.391)" fill="#f9d366"/>
  <path id="Trazado_78" data-name="Trazado 78" d="M340.826,165.168l2.2-.447a.974.974,0,0,0,0-1.91l-2.2-.447a5.518,5.518,0,0,1-4.312-4.312l-.447-2.205a.974.974,0,0,0-1.91,0l-.447,2.205a5.518,5.518,0,0,1-4.312,4.312l-2.205.447a.974.974,0,0,0,0,1.91l2.205.447a5.518,5.518,0,0,1,4.312,4.312l.447,2.2a.974.974,0,0,0,1.91,0l.447-2.2A5.519,5.519,0,0,1,340.826,165.168Z" transform="translate(-295.812 -141.463)" fill="#938dc8"/>
</svg>
